<svg xmlns="http://www.w3.org/2000/svg" xmlns:xlink="http://www.w3.org/1999/xlink" width="500" zoomAndPan="magnify" viewBox="0 0 375 374.999991" height="500" preserveAspectRatio="xMidYMid meet" version="1.0"><defs><g><g id="id1"/><g id="id2"/><g id="id3"/><g id="id4"/><g id="id5"/><g id="id6"/><g id="id7"/><g id="id8"/><g id="id9"/><g id="id10"/><g id="id11"/><g id="id12"/><g id="id13"/><g id="id14"/><g id="id15"/><g id="id16"/><g id="id17"/></g><clipPath id="id18"><path d="M 180.402344 126.488281 L 222.402344 126.488281 L 222.402344 201.488281 L 180.402344 201.488281 Z M 180.402344 126.488281 " clip-rule="nonzero"/></clipPath></defs><g clip-path="url(#id18)"><path fill="rgb(100%, 100%, 100%)" d="M 181.347656 170.40625 C 181.976562 170.4375 182.585938 170.457031 183.214844 170.59375 C 183.625 170.679688 183.992188 170.710938 184.367188 170.667969 C 184.367188 170.6875 184.367188 170.699219 184.378906 170.71875 C 184.398438 170.921875 184.453125 171.089844 184.515625 171.277344 C 184.597656 171.488281 184.734375 171.675781 184.789062 171.898438 C 184.839844 172.160156 184.871094 172.414062 184.945312 172.675781 C 185.144531 173.320312 185.261719 173.980469 185.355469 174.644531 C 185.398438 174.9375 185.511719 175.210938 185.597656 175.496094 C 185.691406 175.832031 185.796875 176.167969 185.941406 176.484375 C 186.214844 177.042969 186.46875 177.566406 186.46875 178.210938 C 186.46875 178.492188 186.445312 178.765625 186.445312 179.039062 C 186.445312 179.175781 186.4375 179.324219 186.46875 179.460938 C 186.488281 179.546875 186.53125 179.597656 186.582031 179.652344 C 186.582031 179.851562 186.582031 180.0625 186.65625 180.21875 C 186.738281 180.40625 186.917969 180.472656 187.085938 180.535156 C 187.117188 180.628906 187.140625 180.722656 187.191406 180.808594 C 187.242188 180.890625 187.328125 180.953125 187.402344 181.007812 C 187.390625 181.207031 187.421875 181.417969 187.589844 181.523438 C 187.9375 181.742188 188.554688 181.21875 188.722656 180.933594 C 188.933594 180.574219 188.984375 180.09375 188.996094 179.660156 C 189.152344 179.410156 189.238281 179.113281 189.257812 178.828125 C 189.3125 178.136719 189.175781 177.359375 188.871094 176.738281 C 188.703125 176.398438 188.578125 176.03125 188.535156 175.652344 C 188.503906 175.371094 188.554688 175.097656 188.578125 174.824219 C 188.734375 174.621094 188.902344 174.421875 189.070312 174.234375 C 189.542969 173.695312 190.066406 173.046875 189.835938 172.277344 C 189.710938 171.867188 189.40625 171.605469 189.058594 171.382812 C 188.746094 171.183594 188.460938 170.972656 188.1875 170.730469 C 188.15625 170.625 188.113281 170.53125 188.082031 170.425781 C 188.25 170.351562 188.398438 170.238281 188.460938 170.109375 C 188.578125 169.867188 188.3125 169.585938 188.230469 169.375 C 188.105469 169.039062 188.074219 168.660156 188.105469 168.300781 C 188.136719 167.964844 188.1875 167.640625 188.199219 167.300781 C 188.199219 167.15625 188.242188 166.828125 188.1875 166.617188 C 188.21875 166.367188 188.21875 166.125 188.210938 165.882812 C 188.15625 165.105469 188.167969 164.335938 188.21875 163.566406 C 188.261719 163.042969 188.28125 162.503906 188.28125 161.96875 C 188.28125 161.632812 188.324219 161.308594 188.378906 160.980469 C 188.398438 160.855469 188.429688 160.707031 188.449219 160.558594 C 188.535156 160.644531 188.628906 160.71875 188.691406 160.792969 C 188.914062 161.035156 189.121094 161.242188 189.40625 161.402344 C 189.835938 161.632812 190.320312 161.855469 190.78125 162.03125 C 191.230469 162.199219 191.703125 162.242188 192.164062 162.402344 C 192.953125 162.675781 193.738281 163.042969 194.570312 163.199219 C 194.546875 163.304688 194.527344 163.421875 194.515625 163.527344 C 194.476562 163.9375 194.433594 164.355469 194.371094 164.765625 C 194.285156 165.347656 194.105469 165.964844 193.886719 166.503906 C 193.867188 166.566406 193.824219 166.617188 193.792969 166.671875 C 193.917969 166.816406 194.066406 166.945312 194.234375 167.070312 C 194.539062 167.300781 195.292969 167.640625 195.609375 167.238281 C 195.746094 167.058594 195.816406 166.777344 195.933594 166.578125 C 196.015625 166.429688 196.089844 166.28125 196.152344 166.132812 C 196.25 166.355469 196.332031 166.597656 196.40625 166.785156 C 196.5625 167.15625 196.792969 167.480469 196.960938 167.847656 C 197.320312 168.648438 197.84375 169.457031 198.03125 170.320312 C 198.253906 171.300781 198.472656 172.277344 198.640625 173.265625 C 198.726562 173.761719 198.777344 174.253906 198.902344 174.738281 C 199.007812 175.128906 199.03125 175.527344 199.125 175.917969 C 199.21875 176.296875 199.207031 176.851562 199.375 177.273438 C 199.34375 177.390625 199.3125 177.503906 199.300781 177.621094 C 199.25 178 199.28125 178.347656 199.375 178.703125 C 199.554688 179.417969 199.679688 180.164062 199.742188 180.902344 C 199.773438 181.300781 199.785156 181.691406 199.734375 182.089844 C 199.679688 182.554688 199.710938 183.015625 199.691406 183.46875 C 199.660156 184.46875 199.542969 185.445312 199.679688 186.433594 C 199.734375 186.769531 199.773438 187.160156 199.847656 187.527344 C 199.816406 187.769531 199.828125 188.011719 199.828125 188.242188 C 199.828125 188.695312 199.816406 189.148438 199.816406 189.601562 C 199.828125 190.441406 199.859375 191.285156 199.910156 192.125 C 199.933594 192.554688 199.996094 192.964844 200.425781 193.15625 C 200.667969 193.261719 200.941406 193.324219 201.191406 193.429688 C 201.546875 193.578125 201.894531 193.746094 202.25 193.914062 C 202.976562 194.25 203.71875 194.511719 204.507812 194.480469 C 204.488281 195.25 204.359375 196.015625 204.078125 196.730469 C 203.929688 197.089844 203.730469 197.40625 203.46875 197.667969 C 203.269531 197.867188 203.039062 198.035156 202.859375 198.257812 C 202.691406 198.476562 202.578125 198.71875 202.378906 198.917969 C 202.15625 199.140625 201.90625 199.308594 201.675781 199.53125 C 201.464844 199.730469 201.265625 199.949219 201.035156 200.128906 C 200.824219 200.289062 200.539062 200.476562 200.53125 200.769531 C 200.519531 201.128906 200.867188 201.308594 201.171875 201.265625 C 201.339844 201.246094 201.496094 201.171875 201.644531 201.085938 C 201.894531 201.339844 202.609375 201.464844 202.839844 201.222656 C 203.039062 201.347656 203.238281 201.359375 203.46875 201.296875 C 203.792969 201.445312 204.253906 201.414062 204.414062 201.085938 C 204.769531 201.203125 205.085938 201.054688 205.472656 200.875 C 205.902344 200.675781 206.164062 200.476562 206.375 200.035156 C 206.605469 199.570312 206.972656 199.5 207.363281 199.214844 C 208.171875 198.625 207.582031 197.792969 207.394531 197.046875 C 207.488281 196.898438 207.5625 196.722656 207.570312 196.585938 C 207.625 196.113281 207.457031 195.660156 207.445312 195.1875 C 207.445312 194.953125 207.4375 194.703125 207.445312 194.46875 C 207.457031 194.386719 207.457031 194.25 207.46875 194.125 C 207.75 193.976562 207.992188 193.785156 207.992188 193.398438 C 207.992188 193.167969 207.90625 192.933594 207.875 192.703125 C 207.84375 192.398438 207.84375 192.09375 207.84375 191.789062 C 207.84375 190.945312 207.792969 190.105469 207.804688 189.273438 C 207.8125 188.464844 207.792969 187.65625 207.78125 186.835938 C 207.78125 186.445312 207.75 185.949219 207.644531 185.53125 C 207.65625 185.425781 207.667969 185.320312 207.667969 185.214844 C 207.667969 184.59375 207.6875 183.964844 207.667969 183.34375 C 207.644531 182.722656 207.65625 182.082031 207.582031 181.460938 C 207.550781 181.175781 207.507812 180.882812 207.457031 180.597656 C 207.414062 180.386719 207.414062 180.164062 207.332031 179.964844 C 207.246094 179.746094 207.164062 179.523438 207.070312 179.304688 C 207.089844 179.09375 207.078125 178.863281 207.078125 178.765625 C 207.078125 178.546875 207.058594 178.316406 206.953125 178.113281 C 206.835938 177.882812 206.648438 177.714844 206.554688 177.472656 C 206.492188 177.292969 206.4375 177.117188 206.355469 176.957031 C 206.386719 176.882812 206.40625 176.8125 206.4375 176.726562 C 206.53125 176.441406 206.554688 176.136719 206.636719 175.84375 C 206.835938 175.148438 207.015625 174.453125 207.238281 173.761719 C 207.363281 173.359375 207.550781 172.980469 207.65625 172.570312 C 207.773438 172.160156 207.898438 171.773438 208.035156 171.371094 C 208.308594 170.574219 208.546875 169.761719 208.757812 168.953125 C 208.882812 168.460938 209.042969 167.933594 209.105469 167.40625 C 209.585938 167.511719 210.195312 167.605469 210.375 167.25 C 210.5 166.996094 210.449219 166.628906 210.480469 166.355469 C 210.519531 165.945312 210.617188 165.546875 210.6875 165.144531 C 210.867188 164.15625 211.003906 163.148438 211.046875 162.148438 C 211.097656 161.203125 211.089844 160.214844 210.960938 159.277344 C 210.847656 158.46875 210.636719 157.6875 210.542969 156.878906 C 211.351562 157.246094 212.117188 157.71875 212.945312 158.046875 C 213.902344 158.433594 214.949219 158.65625 215.96875 158.773438 C 216.355469 158.8125 216.765625 158.835938 217.121094 158.65625 C 217.46875 158.476562 217.742188 158.140625 218.015625 157.855469 C 218.6875 157.171875 219.359375 156.59375 219.664062 155.648438 C 219.894531 154.941406 220.132812 154.238281 220.324219 153.523438 C 220.699219 152.988281 220.605469 152.125 220.734375 151.492188 C 220.878906 150.726562 221.152344 149.980469 221.277344 149.199219 C 221.402344 148.421875 221.363281 147.601562 221.414062 146.8125 C 221.46875 145.960938 221.613281 144.992188 221.351562 144.171875 C 221.140625 143.53125 220.910156 142.867188 220.449219 142.375 C 220.53125 142.257812 220.617188 142.121094 220.648438 142.058594 C 220.753906 141.847656 220.765625 141.542969 220.667969 141.332031 C 220.933594 141.511719 221.035156 141.910156 221.035156 142.207031 C 221.078125 142.078125 221.140625 141.902344 221.132812 141.734375 C 221.121094 141.542969 221.003906 141.363281 220.996094 141.183594 C 221.308594 141.523438 221.570312 141.617188 221.992188 141.425781 C 221.898438 141.375 221.75 141.386719 221.644531 141.34375 C 221.539062 141.300781 221.46875 141.257812 221.394531 141.183594 C 221.226562 141.039062 221.164062 140.828125 221.015625 140.679688 C 221.414062 140.996094 221.78125 140.878906 222.191406 140.671875 C 221.636719 140.847656 221.035156 140.460938 220.859375 139.914062 C 221.109375 139.660156 221.214844 139.304688 221.257812 138.925781 C 221.339844 139.070312 221.519531 139.503906 221.773438 139.34375 C 221.539062 139.34375 221.539062 138.851562 221.5625 138.691406 C 221.625 138.21875 222.023438 137.882812 222.140625 137.429688 C 222.242188 137.042969 222.191406 136.632812 222.097656 136.230469 C 222.378906 135.882812 222.402344 135.390625 222.242188 134.992188 C 222.066406 134.546875 221.75 134.179688 221.457031 133.8125 C 221.132812 133.414062 221.089844 132.886719 221.078125 132.382812 C 221.058594 131.445312 220.867188 130.550781 220.070312 130.035156 C 220.0625 129.773438 219.996094 129.542969 219.777344 129.351562 C 219.609375 129.207031 219.285156 129.070312 219.03125 129.101562 C 218.886719 128.859375 218.726562 128.625 218.613281 128.351562 C 218.488281 128.070312 218.371094 127.804688 218.140625 127.597656 C 217.886719 127.375 217.585938 127.21875 217.300781 127.058594 C 216.734375 126.742188 216.179688 126.617188 215.539062 126.566406 C 214.949219 126.511719 214.402344 126.648438 213.835938 126.785156 C 213.566406 126.847656 213.28125 126.921875 213.070312 127.121094 C 212.914062 127.269531 212.820312 127.46875 212.746094 127.679688 C 212.460938 127.742188 212.222656 127.953125 211.96875 128.238281 C 211.625 128.648438 211.328125 129.035156 211.152344 129.550781 C 210.960938 130.078125 210.742188 130.59375 210.6875 131.160156 C 210.667969 131.457031 210.65625 131.75 210.679688 132.046875 C 210.699219 132.320312 210.785156 132.601562 210.761719 132.875 C 210.742188 133.148438 210.585938 133.328125 210.449219 133.558594 C 210.3125 133.792969 210.300781 134 210.363281 134.265625 C 210.332031 134.03125 210.457031 133.75 210.6875 133.664062 C 210.542969 133.90625 210.4375 134.359375 210.636719 134.601562 C 210.65625 134.296875 210.667969 133.9375 210.960938 133.769531 C 210.824219 134.097656 210.605469 134.78125 210.960938 135.054688 C 210.855469 134.558594 211.054688 134.085938 211.234375 133.632812 C 211.296875 133.90625 211.277344 134.210938 211.328125 134.484375 C 211.382812 134.769531 211.457031 135.03125 211.582031 135.285156 C 211.84375 135.800781 212.0625 136.324219 212.328125 136.839844 C 212.390625 136.96875 212.472656 137.074219 212.558594 137.167969 C 212.390625 137.179688 212.222656 137.199219 212.0625 137.21875 C 211.875 137.242188 211.65625 137.316406 211.476562 137.21875 C 211.289062 137.125 211.183594 137.011719 210.960938 136.957031 C 210.753906 136.90625 210.542969 136.863281 210.332031 136.875 C 210.144531 136.875 209.933594 136.914062 209.746094 136.863281 C 209.523438 136.800781 209.347656 136.652344 209.113281 136.589844 C 208.570312 136.453125 208.296875 136.820312 207.886719 137.113281 C 207.59375 137.324219 207.308594 137.523438 207.046875 137.765625 C 206.785156 137.703125 206.34375 137.882812 206.15625 138.007812 C 205.871094 138.199219 205.484375 138.324219 205.148438 138.386719 C 204.78125 138.449219 204.519531 138.652344 204.183594 138.777344 C 203.773438 138.933594 203.40625 139.15625 203.007812 139.335938 C 202.828125 139.417969 202.660156 139.511719 202.480469 139.585938 C 202.417969 139.609375 202.355469 139.628906 202.292969 139.640625 C 202.304688 139.597656 202.3125 139.566406 202.335938 139.523438 C 202.503906 138.996094 202.796875 138.503906 202.441406 137.988281 C 202.15625 137.566406 201.714844 137.386719 201.285156 137.179688 C 201.347656 137.0625 201.410156 136.957031 201.476562 136.851562 C 201.652344 136.882812 201.84375 136.875 202.019531 136.875 C 202.292969 136.863281 202.640625 136.820312 202.882812 136.695312 C 203.121094 136.566406 203.320312 136.359375 203.5625 136.230469 C 203.804688 136.09375 204.152344 135.988281 204.246094 135.695312 C 204.308594 135.503906 204.296875 135.335938 204.214844 135.191406 C 204.371094 135.085938 204.539062 134.96875 204.589844 134.78125 C 204.664062 134.507812 204.550781 134.253906 204.371094 134.066406 C 204.191406 133.886719 204.003906 133.707031 203.816406 133.539062 C 203.636719 133.371094 203.480469 133.140625 203.28125 133.011719 C 203.082031 132.898438 202.902344 132.929688 202.765625 133.054688 C 202.566406 132.875 202.304688 132.8125 202.0625 132.949219 C 201.894531 133.042969 201.820312 133.160156 201.777344 133.296875 C 201.621094 133.316406 201.390625 133.445312 201.308594 133.519531 C 201.210938 133.601562 201.160156 133.71875 201.128906 133.832031 C 200.992188 133.894531 200.792969 134.054688 200.730469 134.117188 C 200.605469 134.234375 200.5 134.402344 200.402344 134.539062 C 200.269531 134.726562 200.183594 134.957031 200.070312 135.167969 C 199.996094 135.316406 199.890625 135.441406 199.804688 135.570312 C 199.480469 135.714844 199.113281 135.851562 198.851562 136.085938 C 198.496094 136.398438 198.503906 137 198.328125 137.421875 C 197.875 138.480469 197.351562 139.492188 197.089844 140.617188 C 197.003906 140.964844 196.960938 141.320312 196.941406 141.679688 C 196.855469 141.984375 196.785156 142.300781 196.773438 142.617188 C 196.742188 143.203125 196.878906 143.835938 197.003906 144.414062 C 197.140625 145.066406 197.457031 145.632812 197.992188 146.023438 C 198.597656 146.457031 199.324219 146.457031 200.027344 146.402344 C 200.636719 146.359375 201.242188 146.285156 201.84375 146.183594 C 201.726562 146.382812 201.632812 146.582031 201.570312 146.824219 C 201.476562 147.191406 201.371094 147.550781 201.210938 147.894531 C 200.949219 148.484375 200.917969 149.160156 201.339844 149.671875 C 201.441406 149.808594 201.570312 149.945312 201.664062 150.082031 C 201.558594 150.210938 201.476562 150.367188 201.421875 150.460938 C 201.285156 150.664062 201.148438 150.832031 201.035156 151.042969 C 200.949219 151.210938 200.84375 151.378906 200.773438 151.554688 C 200.5 151.515625 200.195312 151.652344 199.910156 151.652344 C 199.492188 151.640625 199.144531 151.554688 198.746094 151.429688 C 198.054688 151.210938 197.402344 151.167969 196.6875 151.304688 C 195.945312 151.453125 195.441406 151.820312 194.832031 152.273438 C 194.546875 152.480469 194.328125 152.492188 193.980469 152.472656 C 193.667969 152.449219 193.402344 152.523438 193.101562 152.585938 C 192.511719 152.714844 191.863281 152.511719 191.566406 153.101562 C 190.558594 152.796875 189.550781 152.554688 188.523438 152.34375 C 187.273438 152.101562 185.996094 151.828125 184.714844 151.871094 C 183.8125 151.894531 182.867188 152.101562 182.113281 152.617188 C 181.410156 153.101562 181.050781 153.859375 180.882812 154.691406 C 180.714844 155.523438 180.707031 156.363281 180.789062 157.203125 C 180.789062 157.320312 180.789062 157.445312 180.789062 157.542969 C 180.769531 157.835938 180.769531 158.152344 180.789062 158.445312 C 180.8125 158.78125 180.875 159.117188 180.90625 159.457031 C 180.945312 159.824219 180.9375 160.179688 180.957031 160.550781 C 180.976562 160.9375 180.9375 161.316406 180.925781 161.707031 C 180.914062 162.0625 180.945312 162.433594 180.914062 162.800781 C 180.894531 163.15625 180.90625 163.515625 180.882812 163.875 C 180.863281 164.199219 180.84375 164.515625 180.84375 164.839844 C 180.84375 165.09375 180.8125 165.347656 180.820312 165.597656 C 180.683594 166.175781 180.644531 166.746094 180.621094 167.34375 C 180.601562 168.132812 180.453125 168.890625 180.402344 169.667969 C 180.441406 170.207031 180.777344 170.375 181.347656 170.40625 Z M 221.605469 134.453125 C 221.855469 134.75 222.085938 135.128906 222.128906 135.464844 C 222.148438 135.640625 222.105469 135.988281 221.90625 135.738281 C 221.761719 135.546875 221.707031 135.253906 221.675781 135.023438 C 221.65625 134.820312 221.644531 134.644531 221.605469 134.453125 Z M 213.734375 151.691406 C 213.804688 151.589844 213.878906 151.484375 213.941406 151.410156 C 214.203125 151.09375 214.613281 150.808594 214.980469 150.621094 C 215.171875 150.527344 215.371094 150.441406 215.539062 150.292969 C 215.609375 150.242188 215.789062 150.03125 215.945312 149.894531 C 215.90625 150.148438 215.914062 150.453125 215.914062 150.664062 C 215.914062 150.839844 215.945312 151.019531 215.976562 151.210938 C 215.777344 151.386719 215.570312 151.796875 215.515625 151.933594 C 215.378906 152.292969 215.140625 152.609375 215.003906 152.964844 C 214.972656 153.058594 214.941406 153.15625 214.929688 153.25 C 214.78125 153.230469 214.625 153.207031 214.46875 153.207031 C 214.320312 153.21875 214.183594 153.25 214.046875 153.292969 C 214.027344 153.300781 214.003906 153.300781 213.984375 153.3125 C 213.964844 153.027344 214.035156 152.691406 213.972656 152.417969 C 213.941406 152.25 213.878906 152.082031 213.835938 151.925781 C 213.804688 151.828125 213.773438 151.765625 213.734375 151.691406 Z M 213.734375 151.691406 " fill-opacity="1" fill-rule="nonzero"/></g><g fill="rgb(100%, 100%, 100%)" fill-opacity="1"><g transform="translate(87.829971, 173.363909)"><g><path d="M 2.71875 -4.515625 C 3.039062 -4.242188 3.375 -4.003906 3.71875 -3.796875 C 4.070312 -3.585938 4.453125 -3.394531 4.859375 -3.21875 C 5.617188 -2.894531 6.519531 -2.734375 7.5625 -2.734375 C 8.1875 -2.734375 8.734375 -2.796875 9.203125 -2.921875 C 9.671875 -3.046875 10.066406 -3.222656 10.390625 -3.453125 C 10.992188 -3.890625 11.296875 -4.46875 11.296875 -5.1875 C 11.296875 -5.25 11.296875 -5.3125 11.296875 -5.375 C 11.296875 -5.445312 11.289062 -5.507812 11.28125 -5.5625 C 11.269531 -5.625 11.257812 -5.6875 11.25 -5.75 C 11.25 -5.8125 11.238281 -5.863281 11.21875 -5.90625 C 11.195312 -5.957031 11.175781 -6.015625 11.15625 -6.078125 C 11.082031 -6.304688 10.921875 -6.535156 10.671875 -6.765625 C 10.390625 -7.023438 9.984375 -7.300781 9.453125 -7.59375 C 8.859375 -7.894531 8.101562 -8.226562 7.1875 -8.59375 C 6.125 -8.988281 5.234375 -9.394531 4.515625 -9.8125 C 3.734375 -10.226562 3.09375 -10.695312 2.59375 -11.21875 C 2.425781 -11.40625 2.273438 -11.59375 2.140625 -11.78125 C 2.003906 -11.96875 1.878906 -12.164062 1.765625 -12.375 C 1.648438 -12.59375 1.554688 -12.804688 1.484375 -13.015625 C 1.273438 -13.660156 1.171875 -14.378906 1.171875 -15.171875 C 1.171875 -15.992188 1.34375 -16.765625 1.6875 -17.484375 C 2.03125 -18.210938 2.535156 -18.84375 3.203125 -19.375 C 3.847656 -19.882812 4.632812 -20.289062 5.5625 -20.59375 C 6.476562 -20.882812 7.515625 -21.03125 8.671875 -21.03125 C 9.910156 -21.03125 11.023438 -20.90625 12.015625 -20.65625 C 13.003906 -20.40625 13.972656 -20.050781 14.921875 -19.59375 L 15.53125 -19.28125 L 15.265625 -18.65625 L 14.265625 -16.34375 L 13.953125 -15.609375 L 13.234375 -16 C 13.046875 -16.132812 12.84375 -16.25 12.625 -16.34375 C 12.40625 -16.4375 12.171875 -16.53125 11.921875 -16.625 C 11.679688 -16.726562 11.414062 -16.828125 11.125 -16.921875 C 10.332031 -17.148438 9.5 -17.265625 8.625 -17.265625 C 8.050781 -17.265625 7.550781 -17.210938 7.125 -17.109375 C 6.695312 -17.003906 6.335938 -16.851562 6.046875 -16.65625 C 5.859375 -16.53125 5.707031 -16.398438 5.59375 -16.265625 C 5.476562 -16.128906 5.394531 -15.984375 5.34375 -15.828125 C 5.300781 -15.679688 5.28125 -15.515625 5.28125 -15.328125 C 5.28125 -15.015625 5.316406 -14.753906 5.390625 -14.546875 C 5.453125 -14.359375 5.597656 -14.171875 5.828125 -13.984375 C 5.953125 -13.867188 6.109375 -13.75 6.296875 -13.625 C 6.492188 -13.5 6.726562 -13.367188 7 -13.234375 C 7.125 -13.179688 7.265625 -13.113281 7.421875 -13.03125 C 7.578125 -12.957031 7.742188 -12.882812 7.921875 -12.8125 C 8.097656 -12.738281 8.289062 -12.660156 8.5 -12.578125 C 8.707031 -12.503906 8.925781 -12.421875 9.15625 -12.328125 C 10.300781 -11.910156 11.265625 -11.472656 12.046875 -11.015625 C 12.210938 -10.921875 12.367188 -10.820312 12.515625 -10.71875 C 12.671875 -10.625 12.816406 -10.523438 12.953125 -10.421875 C 13.085938 -10.316406 13.222656 -10.210938 13.359375 -10.109375 C 13.492188 -10.003906 13.613281 -9.898438 13.71875 -9.796875 C 13.832031 -9.691406 13.941406 -9.582031 14.046875 -9.46875 C 14.578125 -8.894531 14.957031 -8.28125 15.1875 -7.625 C 15.414062 -6.96875 15.53125 -6.257812 15.53125 -5.5 C 15.53125 -4.457031 15.316406 -3.523438 14.890625 -2.703125 C 14.492188 -1.890625 13.9375 -1.195312 13.21875 -0.625 C 12.507812 -0.0507812 11.660156 0.375 10.671875 0.65625 C 9.722656 0.925781 8.6875 1.0625 7.5625 1.0625 C 6.09375 1.0625 4.753906 0.859375 3.546875 0.453125 C 2.328125 0.0546875 1.296875 -0.460938 0.453125 -1.109375 L -0.046875 -1.515625 L 0.28125 -2.046875 L 1.65625 -4.34375 L 2.078125 -5.046875 Z M 2.71875 -4.515625 "/></g></g></g><g fill="rgb(100%, 100%, 100%)" fill-opacity="1"><g transform="translate(104.037928, 173.363909)"><g><path d="M 12.578125 -7.421875 C 12.578125 -8.085938 12.472656 -8.710938 12.265625 -9.296875 C 12.054688 -9.867188 11.769531 -10.375 11.40625 -10.8125 C 11.28125 -10.945312 11.148438 -11.078125 11.015625 -11.203125 C 10.878906 -11.328125 10.734375 -11.441406 10.578125 -11.546875 C 10.429688 -11.648438 10.269531 -11.738281 10.09375 -11.8125 C 9.863281 -11.945312 9.613281 -12.039062 9.34375 -12.09375 C 9.082031 -12.15625 8.8125 -12.1875 8.53125 -12.1875 C 7.257812 -12.1875 6.269531 -11.773438 5.5625 -10.953125 C 4.84375 -10.097656 4.484375 -8.9375 4.484375 -7.46875 C 4.484375 -6.8125 4.585938 -6.1875 4.796875 -5.59375 C 4.828125 -5.5 4.863281 -5.40625 4.90625 -5.3125 C 4.945312 -5.21875 4.988281 -5.117188 5.03125 -5.015625 C 5.082031 -4.921875 5.128906 -4.832031 5.171875 -4.75 C 5.222656 -4.664062 5.269531 -4.582031 5.3125 -4.5 C 5.363281 -4.425781 5.414062 -4.347656 5.46875 -4.265625 C 5.53125 -4.179688 5.597656 -4.109375 5.671875 -4.046875 C 5.785156 -3.898438 5.910156 -3.765625 6.046875 -3.640625 C 6.179688 -3.515625 6.320312 -3.398438 6.46875 -3.296875 C 6.625 -3.191406 6.789062 -3.101562 6.96875 -3.03125 C 7.1875 -2.894531 7.429688 -2.796875 7.703125 -2.734375 C 7.972656 -2.679688 8.25 -2.65625 8.53125 -2.65625 C 9.175781 -2.65625 9.75 -2.769531 10.25 -3 C 10.488281 -3.113281 10.707031 -3.242188 10.90625 -3.390625 C 11.113281 -3.546875 11.300781 -3.726562 11.46875 -3.9375 C 11.832031 -4.332031 12.109375 -4.828125 12.296875 -5.421875 C 12.484375 -6.015625 12.578125 -6.679688 12.578125 -7.421875 Z M 0.421875 -7.421875 C 0.421875 -8.710938 0.632812 -9.878906 1.0625 -10.921875 C 1.476562 -11.972656 2.046875 -12.863281 2.765625 -13.59375 C 3.492188 -14.320312 4.347656 -14.890625 5.328125 -15.296875 C 6.316406 -15.691406 7.382812 -15.890625 8.53125 -15.890625 C 8.8125 -15.890625 9.082031 -15.875 9.34375 -15.84375 C 9.613281 -15.820312 9.882812 -15.785156 10.15625 -15.734375 C 10.425781 -15.679688 10.6875 -15.617188 10.9375 -15.546875 C 11.195312 -15.472656 11.453125 -15.390625 11.703125 -15.296875 C 12.191406 -15.097656 12.648438 -14.859375 13.078125 -14.578125 C 13.503906 -14.296875 13.910156 -13.972656 14.296875 -13.609375 C 15.015625 -12.867188 15.582031 -11.972656 16 -10.921875 C 16.425781 -9.898438 16.640625 -8.75 16.640625 -7.46875 C 16.640625 -6.195312 16.4375 -5.039062 16.03125 -4 C 15.613281 -2.945312 15.046875 -2.050781 14.328125 -1.3125 C 13.960938 -0.925781 13.5625 -0.585938 13.125 -0.296875 C 12.6875 -0.00390625 12.21875 0.242188 11.71875 0.453125 C 10.738281 0.859375 9.675781 1.0625 8.53125 1.0625 C 7.957031 1.0625 7.398438 1.003906 6.859375 0.890625 C 6.316406 0.785156 5.800781 0.628906 5.3125 0.421875 C 4.320312 0.00390625 3.460938 -0.578125 2.734375 -1.328125 C 2.015625 -2.078125 1.445312 -2.972656 1.03125 -4.015625 C 0.625 -5.046875 0.421875 -6.179688 0.421875 -7.421875 Z M 0.421875 -7.421875 "/></g></g></g><g fill="rgb(100%, 100%, 100%)" fill-opacity="1"><g transform="translate(121.101938, 173.363909)"><g><path d="M 15.546875 0.859375 C 15.035156 0.859375 14.566406 0.804688 14.140625 0.703125 C 13.710938 0.597656 13.328125 0.429688 12.984375 0.203125 C 12.597656 -0.0664062 12.285156 -0.390625 12.046875 -0.765625 C 11.503906 -0.328125 10.921875 0.0390625 10.296875 0.34375 C 9.328125 0.820312 8.273438 1.0625 7.140625 1.0625 C 6.410156 1.0625 5.710938 0.945312 5.046875 0.71875 C 4.347656 0.488281 3.726562 0.117188 3.1875 -0.390625 C 2.644531 -0.910156 2.210938 -1.570312 1.890625 -2.375 C 1.578125 -3.144531 1.421875 -4.082031 1.421875 -5.1875 L 1.421875 -15.546875 L 5.421875 -15.546875 L 5.421875 -5.53125 C 5.421875 -4.539062 5.609375 -3.800781 5.984375 -3.3125 C 6.328125 -2.875 6.875 -2.65625 7.625 -2.65625 C 8.320312 -2.65625 8.984375 -2.785156 9.609375 -3.046875 C 9.878906 -3.179688 10.144531 -3.328125 10.40625 -3.484375 C 10.675781 -3.648438 10.914062 -3.820312 11.125 -4 L 11.125 -15.546875 L 15.125 -15.546875 L 15.125 -3.859375 C 15.125 -3.515625 15.148438 -3.253906 15.203125 -3.078125 C 15.265625 -2.929688 15.332031 -2.828125 15.40625 -2.765625 C 15.476562 -2.691406 15.5625 -2.644531 15.65625 -2.625 C 15.789062 -2.582031 15.9375 -2.5625 16.09375 -2.5625 L 17.03125 -2.5625 L 16.78125 -1.65625 L 16.234375 0.34375 L 16.09375 0.859375 Z M 15.546875 0.859375 "/></g></g></g><g fill="rgb(100%, 100%, 100%)" fill-opacity="1"><g transform="translate(138.337151, 173.363909)"><g><path d="M 5.421875 -4.90625 C 5.421875 -4.050781 5.570312 -3.441406 5.875 -3.078125 C 6.164062 -2.753906 6.585938 -2.59375 7.140625 -2.59375 C 7.441406 -2.59375 7.734375 -2.628906 8.015625 -2.703125 C 8.316406 -2.785156 8.582031 -2.875 8.8125 -2.96875 L 9.5625 -3.28125 L 9.78125 -2.515625 L 10.40625 -0.421875 L 10.578125 0.171875 L 10.015625 0.421875 C 9.628906 0.597656 9.160156 0.742188 8.609375 0.859375 C 8.054688 0.992188 7.453125 1.0625 6.796875 1.0625 C 6.046875 1.0625 5.347656 0.953125 4.703125 0.734375 C 4.054688 0.515625 3.484375 0.164062 2.984375 -0.3125 C 2.492188 -0.789062 2.109375 -1.390625 1.828125 -2.109375 C 1.554688 -2.816406 1.421875 -3.664062 1.421875 -4.65625 L 1.421875 -21.828125 L 5.421875 -21.828125 Z M 5.421875 -4.90625 "/></g></g></g><g fill="rgb(100%, 100%, 100%)" fill-opacity="1"><g transform="translate(115.90827, 196.874987)"><g><path d="M 2.71875 -4.515625 C 3.039062 -4.242188 3.375 -4.003906 3.71875 -3.796875 C 4.070312 -3.585938 4.453125 -3.394531 4.859375 -3.21875 C 5.617188 -2.894531 6.519531 -2.734375 7.5625 -2.734375 C 8.1875 -2.734375 8.734375 -2.796875 9.203125 -2.921875 C 9.671875 -3.046875 10.066406 -3.222656 10.390625 -3.453125 C 10.992188 -3.890625 11.296875 -4.46875 11.296875 -5.1875 C 11.296875 -5.25 11.296875 -5.3125 11.296875 -5.375 C 11.296875 -5.445312 11.289062 -5.507812 11.28125 -5.5625 C 11.269531 -5.625 11.257812 -5.6875 11.25 -5.75 C 11.25 -5.8125 11.238281 -5.863281 11.21875 -5.90625 C 11.195312 -5.957031 11.175781 -6.015625 11.15625 -6.078125 C 11.082031 -6.304688 10.921875 -6.535156 10.671875 -6.765625 C 10.390625 -7.023438 9.984375 -7.300781 9.453125 -7.59375 C 8.859375 -7.894531 8.101562 -8.226562 7.1875 -8.59375 C 6.125 -8.988281 5.234375 -9.394531 4.515625 -9.8125 C 3.734375 -10.226562 3.09375 -10.695312 2.59375 -11.21875 C 2.425781 -11.40625 2.273438 -11.59375 2.140625 -11.78125 C 2.003906 -11.96875 1.878906 -12.164062 1.765625 -12.375 C 1.648438 -12.59375 1.554688 -12.804688 1.484375 -13.015625 C 1.273438 -13.660156 1.171875 -14.378906 1.171875 -15.171875 C 1.171875 -15.992188 1.34375 -16.765625 1.6875 -17.484375 C 2.03125 -18.210938 2.535156 -18.84375 3.203125 -19.375 C 3.847656 -19.882812 4.632812 -20.289062 5.5625 -20.59375 C 6.476562 -20.882812 7.515625 -21.03125 8.671875 -21.03125 C 9.910156 -21.03125 11.023438 -20.90625 12.015625 -20.65625 C 13.003906 -20.40625 13.972656 -20.050781 14.921875 -19.59375 L 15.53125 -19.28125 L 15.265625 -18.65625 L 14.265625 -16.34375 L 13.953125 -15.609375 L 13.234375 -16 C 13.046875 -16.132812 12.84375 -16.25 12.625 -16.34375 C 12.40625 -16.4375 12.171875 -16.53125 11.921875 -16.625 C 11.679688 -16.726562 11.414062 -16.828125 11.125 -16.921875 C 10.332031 -17.148438 9.5 -17.265625 8.625 -17.265625 C 8.050781 -17.265625 7.550781 -17.210938 7.125 -17.109375 C 6.695312 -17.003906 6.335938 -16.851562 6.046875 -16.65625 C 5.859375 -16.53125 5.707031 -16.398438 5.59375 -16.265625 C 5.476562 -16.128906 5.394531 -15.984375 5.34375 -15.828125 C 5.300781 -15.679688 5.28125 -15.515625 5.28125 -15.328125 C 5.28125 -15.015625 5.316406 -14.753906 5.390625 -14.546875 C 5.453125 -14.359375 5.597656 -14.171875 5.828125 -13.984375 C 5.953125 -13.867188 6.109375 -13.75 6.296875 -13.625 C 6.492188 -13.5 6.726562 -13.367188 7 -13.234375 C 7.125 -13.179688 7.265625 -13.113281 7.421875 -13.03125 C 7.578125 -12.957031 7.742188 -12.882812 7.921875 -12.8125 C 8.097656 -12.738281 8.289062 -12.660156 8.5 -12.578125 C 8.707031 -12.503906 8.925781 -12.421875 9.15625 -12.328125 C 10.300781 -11.910156 11.265625 -11.472656 12.046875 -11.015625 C 12.210938 -10.921875 12.367188 -10.820312 12.515625 -10.71875 C 12.671875 -10.625 12.816406 -10.523438 12.953125 -10.421875 C 13.085938 -10.316406 13.222656 -10.210938 13.359375 -10.109375 C 13.492188 -10.003906 13.613281 -9.898438 13.71875 -9.796875 C 13.832031 -9.691406 13.941406 -9.582031 14.046875 -9.46875 C 14.578125 -8.894531 14.957031 -8.28125 15.1875 -7.625 C 15.414062 -6.96875 15.53125 -6.257812 15.53125 -5.5 C 15.53125 -4.457031 15.316406 -3.523438 14.890625 -2.703125 C 14.492188 -1.890625 13.9375 -1.195312 13.21875 -0.625 C 12.507812 -0.0507812 11.660156 0.375 10.671875 0.65625 C 9.722656 0.925781 8.6875 1.0625 7.5625 1.0625 C 6.09375 1.0625 4.753906 0.859375 3.546875 0.453125 C 2.328125 0.0546875 1.296875 -0.460938 0.453125 -1.109375 L -0.046875 -1.515625 L 0.28125 -2.046875 L 1.65625 -4.34375 L 2.078125 -5.046875 Z M 2.71875 -4.515625 "/></g></g></g><g fill="rgb(100%, 100%, 100%)" fill-opacity="1"><g transform="translate(132.116227, 196.874987)"><g><path d="M 4.765625 -5.65625 C 4.972656 -4.8125 5.332031 -4.132812 5.84375 -3.625 C 6.507812 -2.976562 7.40625 -2.65625 8.53125 -2.65625 C 8.800781 -2.65625 9.054688 -2.660156 9.296875 -2.671875 C 9.546875 -2.691406 9.785156 -2.722656 10.015625 -2.765625 C 10.242188 -2.804688 10.460938 -2.851562 10.671875 -2.90625 C 10.878906 -2.96875 11.085938 -3.03125 11.296875 -3.09375 C 11.503906 -3.164062 11.707031 -3.238281 11.90625 -3.3125 C 12.113281 -3.382812 12.320312 -3.46875 12.53125 -3.5625 L 13.265625 -3.90625 L 13.5 -3.109375 L 14.09375 -0.90625 L 14.265625 -0.3125 L 13.71875 -0.0625 C 12.976562 0.28125 12.148438 0.546875 11.234375 0.734375 C 10.785156 0.847656 10.304688 0.929688 9.796875 0.984375 C 9.296875 1.035156 8.769531 1.0625 8.21875 1.0625 C 7.0625 1.0625 6.003906 0.867188 5.046875 0.484375 C 4.097656 0.0859375 3.289062 -0.484375 2.625 -1.234375 C 1.957031 -1.953125 1.441406 -2.84375 1.078125 -3.90625 C 0.742188 -4.9375 0.578125 -6.109375 0.578125 -7.421875 C 0.578125 -8.597656 0.742188 -9.703125 1.078125 -10.734375 C 1.273438 -11.242188 1.492188 -11.726562 1.734375 -12.1875 C 1.984375 -12.644531 2.269531 -13.0625 2.59375 -13.4375 C 3.238281 -14.195312 4.019531 -14.796875 4.9375 -15.234375 C 5.851562 -15.671875 6.867188 -15.890625 7.984375 -15.890625 C 8.367188 -15.890625 8.734375 -15.863281 9.078125 -15.8125 C 9.429688 -15.769531 9.773438 -15.707031 10.109375 -15.625 C 10.441406 -15.539062 10.757812 -15.429688 11.0625 -15.296875 C 11.519531 -15.085938 11.9375 -14.84375 12.3125 -14.5625 C 12.6875 -14.289062 13.023438 -13.972656 13.328125 -13.609375 C 13.910156 -12.898438 14.359375 -12.09375 14.671875 -11.1875 C 14.796875 -10.726562 14.894531 -10.253906 14.96875 -9.765625 C 15.050781 -9.285156 15.09375 -8.796875 15.09375 -8.296875 C 15.09375 -8.171875 15.09375 -8.039062 15.09375 -7.90625 C 15.09375 -7.769531 15.085938 -7.628906 15.078125 -7.484375 C 15.066406 -7.347656 15.0625 -7.210938 15.0625 -7.078125 C 15.0625 -6.941406 15.054688 -6.8125 15.046875 -6.6875 C 15.035156 -6.5625 15.019531 -6.4375 15 -6.3125 L 14.953125 -5.65625 Z M 7.9375 -12.234375 C 7.019531 -12.234375 6.273438 -11.929688 5.703125 -11.328125 C 5.472656 -11.078125 5.269531 -10.769531 5.09375 -10.40625 C 4.925781 -10.050781 4.796875 -9.632812 4.703125 -9.15625 L 11.265625 -9.15625 C 11.171875 -10.070312 10.882812 -10.785156 10.40625 -11.296875 C 9.820312 -11.921875 9 -12.234375 7.9375 -12.234375 Z M 7.9375 -12.234375 "/></g></g></g><g fill="rgb(100%, 100%, 100%)" fill-opacity="1"><g transform="translate(147.639336, 196.874987)"><g><path d="M 5.421875 -4.90625 C 5.421875 -4.050781 5.570312 -3.441406 5.875 -3.078125 C 6.164062 -2.753906 6.585938 -2.59375 7.140625 -2.59375 C 7.441406 -2.59375 7.734375 -2.628906 8.015625 -2.703125 C 8.316406 -2.785156 8.582031 -2.875 8.8125 -2.96875 L 9.5625 -3.28125 L 9.78125 -2.515625 L 10.40625 -0.421875 L 10.578125 0.171875 L 10.015625 0.421875 C 9.628906 0.597656 9.160156 0.742188 8.609375 0.859375 C 8.054688 0.992188 7.453125 1.0625 6.796875 1.0625 C 6.046875 1.0625 5.347656 0.953125 4.703125 0.734375 C 4.054688 0.515625 3.484375 0.164062 2.984375 -0.3125 C 2.492188 -0.789062 2.109375 -1.390625 1.828125 -2.109375 C 1.554688 -2.816406 1.421875 -3.664062 1.421875 -4.65625 L 1.421875 -21.828125 L 5.421875 -21.828125 Z M 5.421875 -4.90625 "/></g></g></g><g fill="rgb(100%, 100%, 100%)" fill-opacity="1"><g transform="translate(157.512485, 196.874987)"><g><path d="M 10.25 -17.71875 C 9.882812 -17.90625 9.484375 -18.085938 9.046875 -18.265625 C 8.953125 -18.273438 8.851562 -18.296875 8.75 -18.328125 C 8.65625 -18.359375 8.554688 -18.382812 8.453125 -18.40625 C 8.347656 -18.425781 8.238281 -18.4375 8.125 -18.4375 C 8.007812 -18.445312 7.894531 -18.453125 7.78125 -18.453125 C 7.707031 -18.453125 7.632812 -18.453125 7.5625 -18.453125 C 7.5 -18.453125 7.4375 -18.445312 7.375 -18.4375 C 7.320312 -18.4375 7.269531 -18.425781 7.21875 -18.40625 C 7.164062 -18.382812 7.109375 -18.363281 7.046875 -18.34375 C 6.992188 -18.320312 6.941406 -18.300781 6.890625 -18.28125 C 6.835938 -18.269531 6.785156 -18.25 6.734375 -18.21875 C 6.691406 -18.1875 6.648438 -18.15625 6.609375 -18.125 C 6.578125 -18.101562 6.539062 -18.070312 6.5 -18.03125 C 6.46875 -17.988281 6.429688 -17.953125 6.390625 -17.921875 C 6.222656 -17.742188 6.085938 -17.515625 5.984375 -17.234375 C 5.890625 -16.960938 5.84375 -16.617188 5.84375 -16.203125 L 5.84375 -15 L 10.25 -15 L 10.25 -11.359375 L 5.84375 -11.359375 L 5.84375 0.71875 L 1.859375 0.71875 L 1.859375 -11.359375 L -0.421875 -11.359375 L -0.421875 -15 L 1.859375 -15 L 1.859375 -16.03125 C 1.859375 -16.945312 2 -17.785156 2.28125 -18.546875 C 2.550781 -19.285156 2.941406 -19.929688 3.453125 -20.484375 C 3.941406 -21.035156 4.5625 -21.453125 5.3125 -21.734375 C 6.007812 -22.023438 6.78125 -22.171875 7.625 -22.171875 C 7.832031 -22.171875 8.035156 -22.164062 8.234375 -22.15625 C 8.429688 -22.144531 8.625 -22.125 8.8125 -22.09375 C 9 -22.070312 9.179688 -22.039062 9.359375 -22 C 9.546875 -21.957031 9.726562 -21.910156 9.90625 -21.859375 C 10.507812 -21.660156 11.097656 -21.421875 11.671875 -21.140625 L 12.234375 -20.859375 L 12.046875 -20.28125 L 11.265625 -18.125 L 10.984375 -17.3125 Z M 10.25 -17.71875 "/></g></g></g><g fill="rgb(100%, 100%, 100%)" fill-opacity="1"><g transform="translate(141.595593, 222.759273)"><g><path d="M 2.484375 -20.625 C 2.710938 -20.644531 2.941406 -20.664062 3.171875 -20.6875 C 3.398438 -20.707031 3.625 -20.722656 3.84375 -20.734375 C 4.0625 -20.753906 4.28125 -20.773438 4.5 -20.796875 C 4.71875 -20.816406 4.941406 -20.828125 5.171875 -20.828125 C 6.023438 -20.878906 7.007812 -20.90625 8.125 -20.90625 C 9.9375 -20.90625 11.507812 -20.625 12.84375 -20.0625 C 14.175781 -19.488281 15.285156 -18.6875 16.171875 -17.65625 C 17.046875 -16.664062 17.695312 -15.507812 18.125 -14.1875 C 18.539062 -12.875 18.75 -11.484375 18.75 -10.015625 C 18.75 -8.546875 18.539062 -7.15625 18.125 -5.84375 C 18.019531 -5.582031 17.914062 -5.320312 17.8125 -5.0625 C 17.707031 -4.800781 17.59375 -4.550781 17.46875 -4.3125 C 17.351562 -4.082031 17.222656 -3.851562 17.078125 -3.625 C 16.929688 -3.394531 16.78125 -3.171875 16.625 -2.953125 C 16.476562 -2.734375 16.3125 -2.519531 16.125 -2.3125 C 15.226562 -1.300781 14.085938 -0.503906 12.703125 0.078125 C 11.328125 0.648438 9.695312 0.9375 7.8125 0.9375 C 7.625 0.9375 7.441406 0.9375 7.265625 0.9375 C 7.097656 0.9375 6.925781 0.9375 6.75 0.9375 C 6.582031 0.9375 6.421875 0.929688 6.265625 0.921875 C 6.117188 0.910156 5.96875 0.90625 5.8125 0.90625 C 5.664062 0.90625 5.515625 0.898438 5.359375 0.890625 C 5.210938 0.890625 5.070312 0.878906 4.9375 0.859375 C 4.113281 0.816406 3.296875 0.75 2.484375 0.65625 L 1.859375 0.578125 L 1.859375 -20.546875 Z M 8.046875 -17.140625 C 7.773438 -17.140625 7.515625 -17.132812 7.265625 -17.125 C 7.023438 -17.125 6.800781 -17.125 6.59375 -17.125 C 6.382812 -17.101562 6.179688 -17.082031 5.984375 -17.0625 L 5.984375 -2.90625 C 6.046875 -2.90625 6.097656 -2.90625 6.140625 -2.90625 C 6.191406 -2.90625 6.238281 -2.898438 6.28125 -2.890625 C 6.332031 -2.878906 6.378906 -2.875 6.421875 -2.875 C 6.460938 -2.875 6.507812 -2.875 6.5625 -2.875 C 7 -2.863281 7.445312 -2.859375 7.90625 -2.859375 C 8.15625 -2.859375 8.390625 -2.863281 8.609375 -2.875 C 8.828125 -2.894531 9.039062 -2.921875 9.25 -2.953125 C 9.457031 -2.984375 9.660156 -3.015625 9.859375 -3.046875 C 10.054688 -3.085938 10.242188 -3.132812 10.421875 -3.1875 C 10.609375 -3.25 10.773438 -3.316406 10.921875 -3.390625 C 11.765625 -3.734375 12.453125 -4.210938 12.984375 -4.828125 C 13.515625 -5.429688 13.90625 -6.171875 14.15625 -7.046875 C 14.414062 -7.941406 14.546875 -8.929688 14.546875 -10.015625 C 14.546875 -10.960938 14.414062 -11.875 14.15625 -12.75 C 13.882812 -13.601562 13.492188 -14.363281 12.984375 -15.03125 C 12.710938 -15.351562 12.410156 -15.644531 12.078125 -15.90625 C 11.742188 -16.164062 11.367188 -16.390625 10.953125 -16.578125 C 10.140625 -16.953125 9.171875 -17.140625 8.046875 -17.140625 Z M 8.046875 -17.140625 "/></g></g></g><g fill="rgb(100%, 100%, 100%)" fill-opacity="1"><g transform="translate(161.056544, 222.759273)"><g><path d="M 4.765625 -5.65625 C 4.972656 -4.8125 5.332031 -4.132812 5.84375 -3.625 C 6.507812 -2.976562 7.40625 -2.65625 8.53125 -2.65625 C 8.800781 -2.65625 9.054688 -2.660156 9.296875 -2.671875 C 9.546875 -2.691406 9.785156 -2.722656 10.015625 -2.765625 C 10.242188 -2.804688 10.460938 -2.851562 10.671875 -2.90625 C 10.878906 -2.96875 11.085938 -3.03125 11.296875 -3.09375 C 11.503906 -3.164062 11.707031 -3.238281 11.90625 -3.3125 C 12.113281 -3.382812 12.320312 -3.46875 12.53125 -3.5625 L 13.265625 -3.90625 L 13.5 -3.109375 L 14.09375 -0.90625 L 14.265625 -0.3125 L 13.71875 -0.0625 C 12.976562 0.28125 12.148438 0.546875 11.234375 0.734375 C 10.785156 0.847656 10.304688 0.929688 9.796875 0.984375 C 9.296875 1.035156 8.769531 1.0625 8.21875 1.0625 C 7.0625 1.0625 6.003906 0.867188 5.046875 0.484375 C 4.097656 0.0859375 3.289062 -0.484375 2.625 -1.234375 C 1.957031 -1.953125 1.441406 -2.84375 1.078125 -3.90625 C 0.742188 -4.9375 0.578125 -6.109375 0.578125 -7.421875 C 0.578125 -8.597656 0.742188 -9.703125 1.078125 -10.734375 C 1.273438 -11.242188 1.492188 -11.726562 1.734375 -12.1875 C 1.984375 -12.644531 2.269531 -13.0625 2.59375 -13.4375 C 3.238281 -14.195312 4.019531 -14.796875 4.9375 -15.234375 C 5.851562 -15.671875 6.867188 -15.890625 7.984375 -15.890625 C 8.367188 -15.890625 8.734375 -15.863281 9.078125 -15.8125 C 9.429688 -15.769531 9.773438 -15.707031 10.109375 -15.625 C 10.441406 -15.539062 10.757812 -15.429688 11.0625 -15.296875 C 11.519531 -15.085938 11.9375 -14.84375 12.3125 -14.5625 C 12.6875 -14.289062 13.023438 -13.972656 13.328125 -13.609375 C 13.910156 -12.898438 14.359375 -12.09375 14.671875 -11.1875 C 14.796875 -10.726562 14.894531 -10.253906 14.96875 -9.765625 C 15.050781 -9.285156 15.09375 -8.796875 15.09375 -8.296875 C 15.09375 -8.171875 15.09375 -8.039062 15.09375 -7.90625 C 15.09375 -7.769531 15.085938 -7.628906 15.078125 -7.484375 C 15.066406 -7.347656 15.0625 -7.210938 15.0625 -7.078125 C 15.0625 -6.941406 15.054688 -6.8125 15.046875 -6.6875 C 15.035156 -6.5625 15.019531 -6.4375 15 -6.3125 L 14.953125 -5.65625 Z M 7.9375 -12.234375 C 7.019531 -12.234375 6.273438 -11.929688 5.703125 -11.328125 C 5.472656 -11.078125 5.269531 -10.769531 5.09375 -10.40625 C 4.925781 -10.050781 4.796875 -9.632812 4.703125 -9.15625 L 11.265625 -9.15625 C 11.171875 -10.070312 10.882812 -10.785156 10.40625 -11.296875 C 9.820312 -11.921875 9 -12.234375 7.9375 -12.234375 Z M 7.9375 -12.234375 "/></g></g></g><g fill="rgb(100%, 100%, 100%)" fill-opacity="1"><g transform="translate(176.579652, 222.759273)"><g><path d="M 10.25 -17.71875 C 9.882812 -17.90625 9.484375 -18.085938 9.046875 -18.265625 C 8.953125 -18.273438 8.851562 -18.296875 8.75 -18.328125 C 8.65625 -18.359375 8.554688 -18.382812 8.453125 -18.40625 C 8.347656 -18.425781 8.238281 -18.4375 8.125 -18.4375 C 8.007812 -18.445312 7.894531 -18.453125 7.78125 -18.453125 C 7.707031 -18.453125 7.632812 -18.453125 7.5625 -18.453125 C 7.5 -18.453125 7.4375 -18.445312 7.375 -18.4375 C 7.320312 -18.4375 7.269531 -18.425781 7.21875 -18.40625 C 7.164062 -18.382812 7.109375 -18.363281 7.046875 -18.34375 C 6.992188 -18.320312 6.941406 -18.300781 6.890625 -18.28125 C 6.835938 -18.269531 6.785156 -18.25 6.734375 -18.21875 C 6.691406 -18.1875 6.648438 -18.15625 6.609375 -18.125 C 6.578125 -18.101562 6.539062 -18.070312 6.5 -18.03125 C 6.46875 -17.988281 6.429688 -17.953125 6.390625 -17.921875 C 6.222656 -17.742188 6.085938 -17.515625 5.984375 -17.234375 C 5.890625 -16.960938 5.84375 -16.617188 5.84375 -16.203125 L 5.84375 -15 L 10.25 -15 L 10.25 -11.359375 L 5.84375 -11.359375 L 5.84375 0.71875 L 1.859375 0.71875 L 1.859375 -11.359375 L -0.421875 -11.359375 L -0.421875 -15 L 1.859375 -15 L 1.859375 -16.03125 C 1.859375 -16.945312 2 -17.785156 2.28125 -18.546875 C 2.550781 -19.285156 2.941406 -19.929688 3.453125 -20.484375 C 3.941406 -21.035156 4.5625 -21.453125 5.3125 -21.734375 C 6.007812 -22.023438 6.78125 -22.171875 7.625 -22.171875 C 7.832031 -22.171875 8.035156 -22.164062 8.234375 -22.15625 C 8.429688 -22.144531 8.625 -22.125 8.8125 -22.09375 C 9 -22.070312 9.179688 -22.039062 9.359375 -22 C 9.546875 -21.957031 9.726562 -21.910156 9.90625 -21.859375 C 10.507812 -21.660156 11.097656 -21.421875 11.671875 -21.140625 L 12.234375 -20.859375 L 12.046875 -20.28125 L 11.265625 -18.125 L 10.984375 -17.3125 Z M 10.25 -17.71875 "/></g></g></g><g fill="rgb(100%, 100%, 100%)" fill-opacity="1"><g transform="translate(186.509873, 222.759273)"><g><path d="M 4.765625 -5.65625 C 4.972656 -4.8125 5.332031 -4.132812 5.84375 -3.625 C 6.507812 -2.976562 7.40625 -2.65625 8.53125 -2.65625 C 8.800781 -2.65625 9.054688 -2.660156 9.296875 -2.671875 C 9.546875 -2.691406 9.785156 -2.722656 10.015625 -2.765625 C 10.242188 -2.804688 10.460938 -2.851562 10.671875 -2.90625 C 10.878906 -2.96875 11.085938 -3.03125 11.296875 -3.09375 C 11.503906 -3.164062 11.707031 -3.238281 11.90625 -3.3125 C 12.113281 -3.382812 12.320312 -3.46875 12.53125 -3.5625 L 13.265625 -3.90625 L 13.5 -3.109375 L 14.09375 -0.90625 L 14.265625 -0.3125 L 13.71875 -0.0625 C 12.976562 0.28125 12.148438 0.546875 11.234375 0.734375 C 10.785156 0.847656 10.304688 0.929688 9.796875 0.984375 C 9.296875 1.035156 8.769531 1.0625 8.21875 1.0625 C 7.0625 1.0625 6.003906 0.867188 5.046875 0.484375 C 4.097656 0.0859375 3.289062 -0.484375 2.625 -1.234375 C 1.957031 -1.953125 1.441406 -2.84375 1.078125 -3.90625 C 0.742188 -4.9375 0.578125 -6.109375 0.578125 -7.421875 C 0.578125 -8.597656 0.742188 -9.703125 1.078125 -10.734375 C 1.273438 -11.242188 1.492188 -11.726562 1.734375 -12.1875 C 1.984375 -12.644531 2.269531 -13.0625 2.59375 -13.4375 C 3.238281 -14.195312 4.019531 -14.796875 4.9375 -15.234375 C 5.851562 -15.671875 6.867188 -15.890625 7.984375 -15.890625 C 8.367188 -15.890625 8.734375 -15.863281 9.078125 -15.8125 C 9.429688 -15.769531 9.773438 -15.707031 10.109375 -15.625 C 10.441406 -15.539062 10.757812 -15.429688 11.0625 -15.296875 C 11.519531 -15.085938 11.9375 -14.84375 12.3125 -14.5625 C 12.6875 -14.289062 13.023438 -13.972656 13.328125 -13.609375 C 13.910156 -12.898438 14.359375 -12.09375 14.671875 -11.1875 C 14.796875 -10.726562 14.894531 -10.253906 14.96875 -9.765625 C 15.050781 -9.285156 15.09375 -8.796875 15.09375 -8.296875 C 15.09375 -8.171875 15.09375 -8.039062 15.09375 -7.90625 C 15.09375 -7.769531 15.085938 -7.628906 15.078125 -7.484375 C 15.066406 -7.347656 15.0625 -7.210938 15.0625 -7.078125 C 15.0625 -6.941406 15.054688 -6.8125 15.046875 -6.6875 C 15.035156 -6.5625 15.019531 -6.4375 15 -6.3125 L 14.953125 -5.65625 Z M 7.9375 -12.234375 C 7.019531 -12.234375 6.273438 -11.929688 5.703125 -11.328125 C 5.472656 -11.078125 5.269531 -10.769531 5.09375 -10.40625 C 4.925781 -10.050781 4.796875 -9.632812 4.703125 -9.15625 L 11.265625 -9.15625 C 11.171875 -10.070312 10.882812 -10.785156 10.40625 -11.296875 C 9.820312 -11.921875 9 -12.234375 7.9375 -12.234375 Z M 7.9375 -12.234375 "/></g></g></g><g fill="rgb(100%, 100%, 100%)" fill-opacity="1"><g transform="translate(202.032981, 222.759273)"><g><path d="M 5.484375 -14.234375 C 5.628906 -14.390625 5.773438 -14.523438 5.921875 -14.640625 C 6.078125 -14.753906 6.242188 -14.859375 6.421875 -14.953125 C 7.367188 -15.578125 8.476562 -15.890625 9.75 -15.890625 C 10.6875 -15.890625 11.515625 -15.738281 12.234375 -15.4375 C 12.960938 -15.144531 13.570312 -14.707031 14.0625 -14.125 C 15 -12.976562 15.46875 -11.492188 15.46875 -9.671875 L 15.46875 0.71875 L 11.46875 0.71875 L 11.46875 -9.390625 C 11.46875 -9.710938 11.441406 -10.003906 11.390625 -10.265625 C 11.347656 -10.535156 11.28125 -10.773438 11.1875 -10.984375 C 11.101562 -11.191406 11 -11.375 10.875 -11.53125 C 10.757812 -11.675781 10.628906 -11.800781 10.484375 -11.90625 C 10.335938 -12.007812 10.171875 -12.085938 9.984375 -12.140625 C 9.796875 -12.191406 9.578125 -12.21875 9.328125 -12.21875 C 8.984375 -12.21875 8.640625 -12.148438 8.296875 -12.015625 C 7.941406 -11.878906 7.59375 -11.6875 7.25 -11.4375 C 6.90625 -11.175781 6.582031 -10.882812 6.28125 -10.5625 C 6.164062 -10.40625 6.039062 -10.242188 5.90625 -10.078125 C 5.769531 -9.921875 5.65625 -9.765625 5.5625 -9.609375 L 5.5625 0.71875 L 1.5625 0.71875 L 1.5625 -15.546875 L 5.484375 -15.546875 Z M 5.484375 -14.234375 "/></g></g></g><g fill="rgb(100%, 100%, 100%)" fill-opacity="1"><g transform="translate(218.925776, 222.759273)"><g><path d="M 2.5625 -3.875 C 2.988281 -3.5 3.53125 -3.195312 4.1875 -2.96875 C 4.851562 -2.71875 5.578125 -2.59375 6.359375 -2.59375 C 7.296875 -2.59375 7.972656 -2.726562 8.390625 -3 C 8.710938 -3.226562 8.875 -3.484375 8.875 -3.765625 C 8.875 -3.953125 8.835938 -4.125 8.765625 -4.28125 C 8.703125 -4.4375 8.585938 -4.585938 8.421875 -4.734375 C 8.191406 -4.921875 7.867188 -5.113281 7.453125 -5.3125 C 7.335938 -5.34375 7.210938 -5.382812 7.078125 -5.4375 C 6.941406 -5.5 6.796875 -5.554688 6.640625 -5.609375 C 6.492188 -5.671875 6.335938 -5.734375 6.171875 -5.796875 C 6.015625 -5.867188 5.84375 -5.929688 5.65625 -5.984375 C 5.15625 -6.160156 4.703125 -6.34375 4.296875 -6.53125 C 3.890625 -6.71875 3.515625 -6.921875 3.171875 -7.140625 C 2.828125 -7.359375 2.519531 -7.59375 2.25 -7.84375 C 1.832031 -8.238281 1.519531 -8.710938 1.3125 -9.265625 C 1.101562 -9.816406 1 -10.425781 1 -11.09375 C 1 -11.78125 1.148438 -12.425781 1.453125 -13.03125 C 1.566406 -13.226562 1.691406 -13.414062 1.828125 -13.59375 C 1.960938 -13.769531 2.101562 -13.9375 2.25 -14.09375 C 2.40625 -14.257812 2.578125 -14.410156 2.765625 -14.546875 C 3.316406 -14.984375 3.984375 -15.316406 4.765625 -15.546875 C 5.523438 -15.773438 6.390625 -15.890625 7.359375 -15.890625 C 8.390625 -15.890625 9.300781 -15.785156 10.09375 -15.578125 C 10.5 -15.460938 10.875 -15.335938 11.21875 -15.203125 C 11.570312 -15.066406 11.90625 -14.914062 12.21875 -14.75 L 12.78125 -14.46875 L 12.578125 -13.890625 L 11.875 -11.78125 L 11.578125 -10.953125 L 10.8125 -11.390625 C 10.351562 -11.671875 9.832031 -11.894531 9.25 -12.0625 C 8.632812 -12.238281 7.96875 -12.328125 7.25 -12.328125 C 6.957031 -12.328125 6.691406 -12.304688 6.453125 -12.265625 C 6.222656 -12.234375 6.019531 -12.179688 5.84375 -12.109375 C 5.675781 -12.046875 5.535156 -11.96875 5.421875 -11.875 C 5.234375 -11.738281 5.101562 -11.609375 5.03125 -11.484375 C 4.96875 -11.359375 4.9375 -11.238281 4.9375 -11.125 C 4.9375 -10.988281 4.957031 -10.875 5 -10.78125 C 5.03125 -10.707031 5.113281 -10.625 5.25 -10.53125 C 5.4375 -10.394531 5.691406 -10.25 6.015625 -10.09375 C 6.210938 -10.019531 6.421875 -9.941406 6.640625 -9.859375 C 6.859375 -9.773438 7.109375 -9.6875 7.390625 -9.59375 C 7.640625 -9.488281 7.875 -9.394531 8.09375 -9.3125 C 8.3125 -9.226562 8.523438 -9.144531 8.734375 -9.0625 C 8.941406 -8.976562 9.132812 -8.890625 9.3125 -8.796875 C 9.5 -8.710938 9.675781 -8.632812 9.84375 -8.5625 C 10.5625 -8.175781 11.148438 -7.765625 11.609375 -7.328125 C 12.085938 -6.859375 12.421875 -6.335938 12.609375 -5.765625 C 12.816406 -5.210938 12.921875 -4.613281 12.921875 -3.96875 C 12.921875 -3.1875 12.75 -2.472656 12.40625 -1.828125 C 12.0625 -1.203125 11.597656 -0.671875 11.015625 -0.234375 C 10.710938 -0.0234375 10.382812 0.160156 10.03125 0.328125 C 9.675781 0.492188 9.300781 0.628906 8.90625 0.734375 C 8.101562 0.953125 7.226562 1.0625 6.28125 1.0625 C 5.0625 1.0625 3.96875 0.90625 3 0.59375 C 2.03125 0.269531 1.222656 -0.132812 0.578125 -0.625 L 0.078125 -1 L 0.375 -1.515625 L 1.453125 -3.65625 L 1.859375 -4.484375 Z M 2.5625 -3.875 "/></g></g></g><g fill="rgb(100%, 100%, 100%)" fill-opacity="1"><g transform="translate(232.280217, 222.759273)"><g><path d="M 4.765625 -5.65625 C 4.972656 -4.8125 5.332031 -4.132812 5.84375 -3.625 C 6.507812 -2.976562 7.40625 -2.65625 8.53125 -2.65625 C 8.800781 -2.65625 9.054688 -2.660156 9.296875 -2.671875 C 9.546875 -2.691406 9.785156 -2.722656 10.015625 -2.765625 C 10.242188 -2.804688 10.460938 -2.851562 10.671875 -2.90625 C 10.878906 -2.96875 11.085938 -3.03125 11.296875 -3.09375 C 11.503906 -3.164062 11.707031 -3.238281 11.90625 -3.3125 C 12.113281 -3.382812 12.320312 -3.46875 12.53125 -3.5625 L 13.265625 -3.90625 L 13.5 -3.109375 L 14.09375 -0.90625 L 14.265625 -0.3125 L 13.71875 -0.0625 C 12.976562 0.28125 12.148438 0.546875 11.234375 0.734375 C 10.785156 0.847656 10.304688 0.929688 9.796875 0.984375 C 9.296875 1.035156 8.769531 1.0625 8.21875 1.0625 C 7.0625 1.0625 6.003906 0.867188 5.046875 0.484375 C 4.097656 0.0859375 3.289062 -0.484375 2.625 -1.234375 C 1.957031 -1.953125 1.441406 -2.84375 1.078125 -3.90625 C 0.742188 -4.9375 0.578125 -6.109375 0.578125 -7.421875 C 0.578125 -8.597656 0.742188 -9.703125 1.078125 -10.734375 C 1.273438 -11.242188 1.492188 -11.726562 1.734375 -12.1875 C 1.984375 -12.644531 2.269531 -13.0625 2.59375 -13.4375 C 3.238281 -14.195312 4.019531 -14.796875 4.9375 -15.234375 C 5.851562 -15.671875 6.867188 -15.890625 7.984375 -15.890625 C 8.367188 -15.890625 8.734375 -15.863281 9.078125 -15.8125 C 9.429688 -15.769531 9.773438 -15.707031 10.109375 -15.625 C 10.441406 -15.539062 10.757812 -15.429688 11.0625 -15.296875 C 11.519531 -15.085938 11.9375 -14.84375 12.3125 -14.5625 C 12.6875 -14.289062 13.023438 -13.972656 13.328125 -13.609375 C 13.910156 -12.898438 14.359375 -12.09375 14.671875 -11.1875 C 14.796875 -10.726562 14.894531 -10.253906 14.96875 -9.765625 C 15.050781 -9.285156 15.09375 -8.796875 15.09375 -8.296875 C 15.09375 -8.171875 15.09375 -8.039062 15.09375 -7.90625 C 15.09375 -7.769531 15.085938 -7.628906 15.078125 -7.484375 C 15.066406 -7.347656 15.0625 -7.210938 15.0625 -7.078125 C 15.0625 -6.941406 15.054688 -6.8125 15.046875 -6.6875 C 15.035156 -6.5625 15.019531 -6.4375 15 -6.3125 L 14.953125 -5.65625 Z M 7.9375 -12.234375 C 7.019531 -12.234375 6.273438 -11.929688 5.703125 -11.328125 C 5.472656 -11.078125 5.269531 -10.769531 5.09375 -10.40625 C 4.925781 -10.050781 4.796875 -9.632812 4.703125 -9.15625 L 11.265625 -9.15625 C 11.171875 -10.070312 10.882812 -10.785156 10.40625 -11.296875 C 9.820312 -11.921875 9 -12.234375 7.9375 -12.234375 Z M 7.9375 -12.234375 "/></g></g></g><g fill="rgb(100%, 8.628845%, 8.628845%)" fill-opacity="1"><g transform="translate(162.799592, 144.898545)"><g><path d="M 1.21875 -2.96875 C 1.070312 -2.570312 0.875 -2.1875 0.625 -1.8125 C 0.382812 -1.4375 0.140625 -1.144531 -0.109375 -0.9375 L -1.859375 -1.5 L -1.703125 -2.09375 L -0.375 -2.03125 C -0.15625 -2.195312 0.0351562 -2.394531 0.203125 -2.625 C 0.378906 -2.863281 0.519531 -3.125 0.625 -3.40625 C 0.78125 -3.84375 0.800781 -4.234375 0.6875 -4.578125 C 0.570312 -4.929688 0.332031 -5.171875 -0.03125 -5.296875 C -0.34375 -5.410156 -0.640625 -5.410156 -0.921875 -5.296875 C -1.203125 -5.179688 -1.472656 -5.003906 -1.734375 -4.765625 C -1.992188 -4.523438 -2.257812 -4.265625 -2.53125 -3.984375 C -2.8125 -3.703125 -3.097656 -3.453125 -3.390625 -3.234375 C -3.679688 -3.015625 -4.003906 -2.859375 -4.359375 -2.765625 C -4.710938 -2.671875 -5.097656 -2.703125 -5.515625 -2.859375 C -5.953125 -3.015625 -6.285156 -3.273438 -6.515625 -3.640625 C -6.753906 -4.003906 -6.890625 -4.429688 -6.921875 -4.921875 C -6.953125 -5.421875 -6.863281 -5.945312 -6.65625 -6.5 C -6.570312 -6.726562 -6.476562 -6.945312 -6.375 -7.15625 C -6.28125 -7.363281 -6.175781 -7.550781 -6.0625 -7.71875 C -5.945312 -7.894531 -5.828125 -8.050781 -5.703125 -8.1875 L -4 -7.671875 L -4.15625 -7.078125 L -5.40625 -7.09375 C -5.695312 -6.882812 -5.925781 -6.5625 -6.09375 -6.125 C -6.257812 -5.664062 -6.28125 -5.257812 -6.15625 -4.90625 C -6.03125 -4.550781 -5.789062 -4.3125 -5.4375 -4.1875 C -5.113281 -4.070312 -4.800781 -4.066406 -4.5 -4.171875 C -4.207031 -4.285156 -3.925781 -4.460938 -3.65625 -4.703125 C -3.394531 -4.941406 -3.128906 -5.203125 -2.859375 -5.484375 C -2.597656 -5.765625 -2.316406 -6.019531 -2.015625 -6.25 C -1.722656 -6.476562 -1.40625 -6.640625 -1.0625 -6.734375 C -0.726562 -6.828125 -0.359375 -6.800781 0.046875 -6.65625 C 0.472656 -6.5 0.804688 -6.234375 1.046875 -5.859375 C 1.296875 -5.492188 1.4375 -5.054688 1.46875 -4.546875 C 1.507812 -4.046875 1.425781 -3.519531 1.21875 -2.96875 Z M 1.21875 -2.96875 "/></g></g></g><g fill="rgb(100%, 8.628845%, 8.628845%)" fill-opacity="1"><g transform="translate(166.274048, 135.992048)"><g><path d="M 2.765625 -4.359375 L 2.28125 -4.640625 L 2.625 -5.421875 C 2.5 -5.421875 2.363281 -5.414062 2.21875 -5.40625 C 2.082031 -5.394531 1.925781 -5.375 1.75 -5.34375 L -1.515625 -4.828125 L -1.84375 -4.3125 L -2.28125 -4.59375 L -2.046875 -5.34375 L -3.03125 -9.453125 L -3.65625 -8.796875 L -4.09375 -9.109375 L -2.625 -11.4375 L -2.125 -11.15625 L -2.453125 -10.390625 L -1.546875 -5.765625 L -1.90625 -6.015625 L 2.125 -6.6875 C 2.351562 -6.738281 2.554688 -6.773438 2.734375 -6.796875 C 2.910156 -6.816406 3.066406 -6.835938 3.203125 -6.859375 C 3.335938 -6.890625 3.457031 -6.914062 3.5625 -6.9375 L 4.078125 -7.4375 L 4.546875 -7.140625 Z M 0.390625 -0.609375 L -0.09375 -0.875 L 0.203125 -1.703125 C 0.148438 -1.753906 -0.015625 -1.878906 -0.296875 -2.078125 C -0.585938 -2.273438 -1 -2.539062 -1.53125 -2.875 L -3.78125 -4.3125 C -4.144531 -4.539062 -4.453125 -4.734375 -4.703125 -4.890625 C -4.960938 -5.046875 -5.164062 -5.164062 -5.3125 -5.25 C -5.457031 -5.332031 -5.550781 -5.378906 -5.59375 -5.390625 L -6.234375 -4.75 L -6.65625 -5.078125 L -5.046875 -7.625 L -4.578125 -7.359375 L -4.859375 -6.53125 C -4.847656 -6.5 -4.773438 -6.429688 -4.640625 -6.328125 C -4.515625 -6.234375 -4.328125 -6.101562 -4.078125 -5.9375 C -3.828125 -5.769531 -3.507812 -5.566406 -3.125 -5.328125 L -0.875 -3.890625 C -0.34375 -3.554688 0.0664062 -3.300781 0.359375 -3.125 C 0.660156 -2.945312 0.847656 -2.84375 0.921875 -2.8125 L 1.53125 -3.453125 L 1.984375 -3.125 Z M 0.390625 -0.609375 "/></g></g></g><g fill="rgb(100%, 8.628845%, 8.628845%)" fill-opacity="1"><g transform="translate(172.667024, 126.792987)"><g><path d="M 0.484375 -0.515625 L 0.078125 -0.859375 L 0.53125 -1.609375 C 0.5 -1.660156 0.421875 -1.75 0.296875 -1.875 C 0.179688 -2 0.0195312 -2.160156 -0.1875 -2.359375 C -0.394531 -2.566406 -0.648438 -2.816406 -0.953125 -3.109375 L -2.890625 -4.953125 C -3.203125 -5.242188 -3.46875 -5.488281 -3.6875 -5.6875 C -3.90625 -5.894531 -4.078125 -6.050781 -4.203125 -6.15625 C -4.335938 -6.269531 -4.421875 -6.335938 -4.453125 -6.359375 L -5.1875 -5.859375 L -5.5625 -6.265625 L -3.484375 -8.453125 L -3.078125 -8.09375 L -3.53125 -7.34375 C -3.519531 -7.300781 -3.460938 -7.21875 -3.359375 -7.09375 C -3.253906 -6.976562 -3.097656 -6.816406 -2.890625 -6.609375 C -2.679688 -6.410156 -2.40625 -6.148438 -2.0625 -5.828125 L -0.125 -3.984375 C 0.207031 -3.660156 0.476562 -3.398438 0.6875 -3.203125 C 0.90625 -3.003906 1.078125 -2.859375 1.203125 -2.765625 C 1.328125 -2.671875 1.410156 -2.613281 1.453125 -2.59375 L 2.1875 -3.09375 L 2.5625 -2.703125 Z M 0.484375 -0.515625 "/></g></g></g><g fill="rgb(100%, 8.628845%, 8.628845%)" fill-opacity="1"><g transform="translate(177.805583, 121.586016)"><g><path d="M 5.421875 -3.828125 C 5.304688 -3.773438 5.175781 -3.703125 5.03125 -3.609375 C 4.894531 -3.515625 4.757812 -3.421875 4.625 -3.328125 C 4.488281 -3.242188 4.367188 -3.164062 4.265625 -3.09375 L 0.578125 -0.421875 L 0.234375 -0.84375 L 0.8125 -1.5 C 0.789062 -1.550781 0.738281 -1.644531 0.65625 -1.78125 C 0.570312 -1.925781 0.441406 -2.117188 0.265625 -2.359375 C 0.0859375 -2.609375 -0.117188 -2.898438 -0.359375 -3.234375 L -1.9375 -5.390625 C -2.1875 -5.734375 -2.394531 -6.023438 -2.5625 -6.265625 C -2.738281 -6.503906 -2.878906 -6.6875 -2.984375 -6.8125 C -3.085938 -6.945312 -3.160156 -7.023438 -3.203125 -7.046875 L -4.015625 -6.734375 L -4.3125 -7.171875 L -1.609375 -9.125 L -1.25 -8.703125 L -2.09375 -7.859375 C -2.082031 -7.828125 -2.035156 -7.742188 -1.953125 -7.609375 C -1.878906 -7.472656 -1.753906 -7.28125 -1.578125 -7.03125 C -1.410156 -6.789062 -1.195312 -6.484375 -0.9375 -6.109375 L 0.640625 -3.953125 C 0.921875 -3.546875 1.171875 -3.195312 1.390625 -2.90625 C 1.609375 -2.625 1.753906 -2.445312 1.828125 -2.375 C 1.953125 -2.4375 2.070312 -2.503906 2.1875 -2.578125 C 2.300781 -2.648438 2.429688 -2.738281 2.578125 -2.84375 L 3.4375 -3.46875 C 3.613281 -3.601562 3.757812 -3.71875 3.875 -3.8125 C 4 -3.914062 4.117188 -4.019531 4.234375 -4.125 L 4 -5.6875 L 4.609375 -5.9375 Z M 5.421875 -3.828125 "/></g></g></g><g fill="rgb(100%, 8.628845%, 8.628845%)" fill-opacity="1"><g transform="translate(186.103711, 115.933418)"><g><path d="M 6.109375 -2.609375 C 5.972656 -2.578125 5.828125 -2.53125 5.671875 -2.46875 C 5.515625 -2.414062 5.363281 -2.359375 5.21875 -2.296875 C 5.070312 -2.242188 4.9375 -2.1875 4.8125 -2.125 L 0.65625 -0.296875 L 0.40625 -0.78125 L 1.125 -1.296875 C 1.101562 -1.347656 1.0625 -1.453125 1 -1.609375 C 0.945312 -1.765625 0.863281 -1.984375 0.75 -2.265625 C 0.632812 -2.546875 0.492188 -2.875 0.328125 -3.25 L -0.75 -5.6875 C -0.925781 -6.070312 -1.070312 -6.398438 -1.1875 -6.671875 C -1.3125 -6.953125 -1.410156 -7.164062 -1.484375 -7.3125 C -1.566406 -7.457031 -1.625 -7.539062 -1.65625 -7.5625 L -2.53125 -7.421875 L -2.71875 -7.921875 L 0.328125 -9.265625 L 0.609375 -8.765625 L -0.40625 -8.125 C -0.40625 -8.09375 -0.378906 -8 -0.328125 -7.84375 C -0.273438 -7.695312 -0.191406 -7.484375 -0.078125 -7.203125 C 0.0351562 -6.929688 0.1875 -6.585938 0.375 -6.171875 L 1.453125 -3.734375 C 1.648438 -3.285156 1.820312 -2.894531 1.96875 -2.5625 C 2.125 -2.238281 2.226562 -2.023438 2.28125 -1.921875 C 2.414062 -1.972656 2.546875 -2.019531 2.671875 -2.0625 C 2.796875 -2.113281 2.941406 -2.175781 3.109375 -2.25 L 4.09375 -2.6875 C 4.289062 -2.769531 4.457031 -2.847656 4.59375 -2.921875 C 4.738281 -2.992188 4.875 -3.066406 5 -3.140625 L 5.109375 -4.71875 L 5.75 -4.84375 Z M 6.109375 -2.609375 "/></g></g></g><g fill="rgb(100%, 8.628845%, 8.628845%)" fill-opacity="1"><g transform="translate(195.424722, 112.152813)"><g><path d="M 3.171875 -0.546875 C 2.753906 -0.453125 2.320312 -0.410156 1.875 -0.421875 C 1.425781 -0.441406 1.046875 -0.492188 0.734375 -0.578125 L 0.28125 -2.375 L 0.859375 -2.546875 L 1.515625 -1.40625 C 1.773438 -1.300781 2.046875 -1.234375 2.328125 -1.203125 C 2.617188 -1.179688 2.910156 -1.203125 3.203125 -1.265625 C 3.660156 -1.367188 4.003906 -1.5625 4.234375 -1.84375 C 4.472656 -2.125 4.550781 -2.453125 4.46875 -2.828125 C 4.40625 -3.160156 4.25 -3.414062 4 -3.59375 C 3.757812 -3.769531 3.460938 -3.90625 3.109375 -4 C 2.765625 -4.09375 2.40625 -4.175781 2.03125 -4.25 C 1.65625 -4.332031 1.289062 -4.441406 0.9375 -4.578125 C 0.59375 -4.722656 0.289062 -4.914062 0.03125 -5.15625 C -0.226562 -5.40625 -0.40625 -5.75 -0.5 -6.1875 C -0.59375 -6.632812 -0.546875 -7.054688 -0.359375 -7.453125 C -0.179688 -7.859375 0.101562 -8.203125 0.5 -8.484375 C 0.90625 -8.765625 1.398438 -8.96875 1.984375 -9.09375 C 2.210938 -9.144531 2.441406 -9.179688 2.671875 -9.203125 C 2.910156 -9.234375 3.128906 -9.242188 3.328125 -9.234375 C 3.535156 -9.222656 3.726562 -9.203125 3.90625 -9.171875 L 4.390625 -7.46875 L 3.8125 -7.28125 L 3.15625 -8.34375 C 2.820312 -8.476562 2.425781 -8.5 1.96875 -8.40625 C 1.488281 -8.300781 1.128906 -8.101562 0.890625 -7.8125 C 0.660156 -7.519531 0.585938 -7.191406 0.671875 -6.828125 C 0.742188 -6.492188 0.898438 -6.234375 1.140625 -6.046875 C 1.390625 -5.859375 1.6875 -5.710938 2.03125 -5.609375 C 2.382812 -5.515625 2.75 -5.425781 3.125 -5.34375 C 3.5 -5.269531 3.863281 -5.164062 4.21875 -5.03125 C 4.570312 -4.894531 4.878906 -4.707031 5.140625 -4.46875 C 5.398438 -4.238281 5.570312 -3.914062 5.65625 -3.5 C 5.75 -3.050781 5.703125 -2.625 5.515625 -2.21875 C 5.335938 -1.8125 5.046875 -1.460938 4.640625 -1.171875 C 4.234375 -0.878906 3.742188 -0.671875 3.171875 -0.546875 Z M 3.171875 -0.546875 "/></g></g></g><g fill="rgb(100%, 8.628845%, 8.628845%)" fill-opacity="1"><g transform="translate(210.797, 110.313519)"><g><path d="M 0.765625 0.09375 L 0.796875 -0.453125 L 1.625 -0.546875 C 1.632812 -0.585938 1.648438 -0.679688 1.671875 -0.828125 C 1.703125 -0.972656 1.734375 -1.191406 1.765625 -1.484375 C 1.804688 -1.773438 1.851562 -2.132812 1.90625 -2.5625 L 2.28125 -5.53125 C 2.332031 -5.90625 2.367188 -6.222656 2.390625 -6.484375 C 2.421875 -6.753906 2.441406 -6.957031 2.453125 -7.09375 C 2.460938 -7.238281 2.460938 -7.328125 2.453125 -7.359375 L 1.625 -7.671875 L 1.71875 -8.1875 L 6.1875 -7.65625 C 6.320312 -7.632812 6.457031 -7.613281 6.59375 -7.59375 C 6.738281 -7.582031 6.894531 -7.570312 7.0625 -7.5625 C 7.226562 -7.5625 7.410156 -7.554688 7.609375 -7.546875 L 7.671875 -5.65625 L 7 -5.625 L 6.671875 -6.859375 C 6.617188 -6.890625 6.546875 -6.910156 6.453125 -6.921875 C 6.359375 -6.941406 6.265625 -6.957031 6.171875 -6.96875 L 4.59375 -7.171875 C 4.445312 -7.179688 4.285156 -7.191406 4.109375 -7.203125 C 3.941406 -7.222656 3.804688 -7.234375 3.703125 -7.234375 C 3.691406 -7.191406 3.675781 -7.117188 3.65625 -7.015625 C 3.644531 -6.921875 3.628906 -6.796875 3.609375 -6.640625 C 3.585938 -6.484375 3.5625 -6.300781 3.53125 -6.09375 C 3.507812 -5.894531 3.488281 -5.6875 3.46875 -5.46875 L 3.109375 -2.40625 C 3.054688 -1.945312 3.015625 -1.570312 2.984375 -1.28125 C 2.960938 -1 2.945312 -0.789062 2.9375 -0.65625 C 2.925781 -0.519531 2.925781 -0.429688 2.9375 -0.390625 L 4.046875 -0.078125 L 3.953125 0.484375 Z M 5.59375 -2.140625 L 5.53125 -3.1875 C 5.476562 -3.207031 5.394531 -3.226562 5.28125 -3.25 C 5.164062 -3.269531 5.023438 -3.289062 4.859375 -3.3125 L 3.6875 -3.453125 C 3.582031 -3.460938 3.472656 -3.472656 3.359375 -3.484375 C 3.242188 -3.503906 3.101562 -3.519531 2.9375 -3.53125 L 3.03125 -4.3125 C 3.144531 -4.289062 3.265625 -4.265625 3.390625 -4.234375 C 3.515625 -4.210938 3.640625 -4.191406 3.765625 -4.171875 L 4.9375 -4.03125 C 5.125 -4.007812 5.273438 -3.992188 5.390625 -3.984375 C 5.503906 -3.984375 5.585938 -3.992188 5.640625 -4.015625 L 5.9375 -4.9375 L 6.53125 -4.875 L 6.1875 -2.078125 Z M 5.59375 -2.140625 "/></g></g></g><g fill="rgb(100%, 8.628845%, 8.628845%)" fill-opacity="1"><g transform="translate(220.585811, 111.663633)"><g><path d="M 4.609375 1.84375 C 3.828125 1.5625 3.203125 1.140625 2.734375 0.578125 C 2.265625 0.015625 1.96875 -0.628906 1.84375 -1.359375 C 1.726562 -2.097656 1.816406 -2.859375 2.109375 -3.640625 C 2.398438 -4.421875 2.832031 -5.050781 3.40625 -5.53125 C 3.976562 -6.019531 4.628906 -6.320312 5.359375 -6.4375 C 6.097656 -6.5625 6.847656 -6.484375 7.609375 -6.203125 C 8.359375 -5.929688 8.953125 -5.519531 9.390625 -4.96875 C 9.835938 -4.425781 10.113281 -3.796875 10.21875 -3.078125 C 10.332031 -2.359375 10.242188 -1.609375 9.953125 -0.828125 C 9.734375 -0.234375 9.425781 0.269531 9.03125 0.6875 C 8.644531 1.113281 8.203125 1.441406 7.703125 1.671875 C 7.210938 1.910156 6.703125 2.046875 6.171875 2.078125 C 5.640625 2.109375 5.117188 2.03125 4.609375 1.84375 Z M 5 1.171875 C 5.488281 1.347656 5.953125 1.375 6.390625 1.25 C 6.835938 1.132812 7.242188 0.882812 7.609375 0.5 C 7.972656 0.113281 8.265625 -0.390625 8.484375 -1.015625 C 8.753906 -1.734375 8.878906 -2.40625 8.859375 -3.03125 C 8.835938 -3.65625 8.6875 -4.191406 8.40625 -4.640625 C 8.132812 -5.085938 7.738281 -5.410156 7.21875 -5.609375 C 6.457031 -5.890625 5.75 -5.828125 5.09375 -5.421875 C 4.445312 -5.015625 3.945312 -4.328125 3.59375 -3.359375 C 3.332031 -2.671875 3.21875 -2.019531 3.25 -1.40625 C 3.289062 -0.800781 3.457031 -0.269531 3.75 0.1875 C 4.050781 0.644531 4.46875 0.972656 5 1.171875 Z M 5 1.171875 "/></g></g></g><g fill="rgb(100%, 8.628845%, 8.628845%)" fill-opacity="1"><g transform="translate(232.044627, 116.35032)"><g><path d="M 0.609375 0.40625 L 0.90625 -0.046875 L 1.734375 0.265625 C 1.773438 0.203125 1.832031 0.113281 1.90625 0 C 1.976562 -0.101562 2.066406 -0.234375 2.171875 -0.390625 C 2.285156 -0.546875 2.40625 -0.710938 2.53125 -0.890625 C 2.664062 -1.066406 2.796875 -1.25 2.921875 -1.4375 L 4.421875 -3.640625 C 4.660156 -4.003906 4.859375 -4.3125 5.015625 -4.5625 C 5.179688 -4.8125 5.304688 -5.007812 5.390625 -5.15625 C 5.484375 -5.300781 5.539062 -5.390625 5.5625 -5.421875 L 4.953125 -6.09375 L 5.28125 -6.5 L 7.859375 -4.75 C 8.585938 -4.257812 9.046875 -3.738281 9.234375 -3.1875 C 9.429688 -2.632812 9.335938 -2.078125 8.953125 -1.515625 C 8.703125 -1.140625 8.367188 -0.875 7.953125 -0.71875 C 7.535156 -0.5625 7.078125 -0.519531 6.578125 -0.59375 C 6.078125 -0.675781 5.585938 -0.878906 5.109375 -1.203125 L 4.34375 -1.734375 L 4.703125 -2.265625 L 5.375 -1.796875 C 5.863281 -1.460938 6.320312 -1.328125 6.75 -1.390625 C 7.1875 -1.460938 7.550781 -1.71875 7.84375 -2.15625 C 8.125 -2.5625 8.222656 -2.953125 8.140625 -3.328125 C 8.054688 -3.703125 7.796875 -4.039062 7.359375 -4.34375 L 6.671875 -4.796875 C 6.648438 -4.785156 6.617188 -4.753906 6.578125 -4.703125 C 6.546875 -4.660156 6.492188 -4.582031 6.421875 -4.46875 C 6.347656 -4.363281 6.238281 -4.207031 6.09375 -4 C 5.957031 -3.789062 5.769531 -3.507812 5.53125 -3.15625 L 3.90625 -0.765625 C 3.675781 -0.421875 3.484375 -0.140625 3.328125 0.078125 C 3.179688 0.304688 3.066406 0.492188 2.984375 0.640625 C 2.898438 0.796875 2.835938 0.910156 2.796875 0.984375 L 3.390625 1.640625 L 3.03125 2.0625 Z M 6.109375 4.3125 C 5.765625 4.082031 5.503906 3.8125 5.328125 3.5 C 5.148438 3.195312 5.039062 2.804688 5 2.328125 C 4.957031 1.847656 4.960938 1.253906 5.015625 0.546875 L 5.1875 -1.453125 L 6.21875 -1.0625 L 6.234375 1.671875 C 6.210938 2.148438 6.226562 2.539062 6.28125 2.84375 C 6.332031 3.15625 6.410156 3.414062 6.515625 3.625 C 6.617188 3.84375 6.765625 4.039062 6.953125 4.21875 L 6.65625 4.625 C 6.570312 4.582031 6.484375 4.535156 6.390625 4.484375 C 6.296875 4.429688 6.203125 4.375 6.109375 4.3125 Z M 6.109375 4.3125 "/></g></g></g><g fill="rgb(100%, 8.628845%, 8.628845%)" fill-opacity="1"><g transform="translate(244.903791, 126.975205)"><g><path d="M 1.8125 2.65625 C 1.5625 2.320312 1.347656 1.945312 1.171875 1.53125 C 0.992188 1.113281 0.882812 0.742188 0.84375 0.421875 L 2.28125 -0.734375 L 2.671875 -0.265625 L 1.90625 0.8125 C 1.925781 1.082031 1.984375 1.351562 2.078125 1.625 C 2.171875 1.894531 2.304688 2.148438 2.484375 2.390625 C 2.765625 2.773438 3.082031 3.015625 3.4375 3.109375 C 3.789062 3.203125 4.125 3.132812 4.4375 2.90625 C 4.707031 2.707031 4.867188 2.457031 4.921875 2.15625 C 4.984375 1.851562 4.984375 1.523438 4.921875 1.171875 C 4.867188 0.816406 4.800781 0.453125 4.71875 0.078125 C 4.632812 -0.285156 4.582031 -0.65625 4.5625 -1.03125 C 4.539062 -1.414062 4.585938 -1.773438 4.703125 -2.109375 C 4.816406 -2.441406 5.054688 -2.742188 5.421875 -3.015625 C 5.785156 -3.285156 6.1875 -3.421875 6.625 -3.421875 C 7.070312 -3.429688 7.507812 -3.3125 7.9375 -3.0625 C 8.363281 -2.8125 8.753906 -2.445312 9.109375 -1.96875 C 9.242188 -1.769531 9.375 -1.566406 9.5 -1.359375 C 9.625 -1.160156 9.722656 -0.96875 9.796875 -0.78125 C 9.867188 -0.59375 9.925781 -0.410156 9.96875 -0.234375 L 8.609375 0.90625 L 8.203125 0.453125 L 8.921875 -0.578125 C 8.890625 -0.941406 8.738281 -1.3125 8.46875 -1.6875 C 8.175781 -2.082031 7.847656 -2.320312 7.484375 -2.40625 C 7.117188 -2.5 6.785156 -2.429688 6.484375 -2.203125 C 6.210938 -2.003906 6.039062 -1.753906 5.96875 -1.453125 C 5.90625 -1.148438 5.898438 -0.820312 5.953125 -0.46875 C 6.003906 -0.113281 6.070312 0.25 6.15625 0.625 C 6.25 1.007812 6.304688 1.390625 6.328125 1.765625 C 6.347656 2.140625 6.300781 2.492188 6.1875 2.828125 C 6.082031 3.171875 5.859375 3.46875 5.515625 3.71875 C 5.148438 3.988281 4.742188 4.125 4.296875 4.125 C 3.859375 4.125 3.421875 4 2.984375 3.75 C 2.554688 3.5 2.164062 3.132812 1.8125 2.65625 Z M 1.8125 2.65625 "/></g></g></g><g fill="rgb(100%, 8.628845%, 8.628845%)" fill-opacity="1"><g transform="translate(250.434293, 134.731746)"><g><path d="M 7.921875 -2.703125 L 9.109375 0.0625 L 8.65625 0.296875 L 8.09375 -0.421875 C 8.050781 -0.410156 7.96875 -0.382812 7.84375 -0.34375 C 7.71875 -0.300781 7.523438 -0.222656 7.265625 -0.109375 C 7.003906 -0.00390625 6.632812 0.148438 6.15625 0.359375 L 4.15625 1.234375 C 3.601562 1.472656 3.195312 1.75 2.9375 2.0625 C 2.675781 2.382812 2.535156 2.734375 2.515625 3.109375 C 2.492188 3.484375 2.566406 3.863281 2.734375 4.25 C 2.898438 4.632812 3.125 4.929688 3.40625 5.140625 C 3.6875 5.359375 4.03125 5.46875 4.4375 5.46875 C 4.851562 5.476562 5.347656 5.359375 5.921875 5.109375 L 7.609375 4.375 C 8.003906 4.207031 8.351562 4.054688 8.65625 3.921875 C 8.957031 3.785156 9.203125 3.671875 9.390625 3.578125 C 9.578125 3.484375 9.691406 3.414062 9.734375 3.375 L 9.546875 2.375 L 10.046875 2.203125 L 11.140625 4.75 L 10.671875 4.984375 L 10.125 4.28125 C 10.09375 4.289062 10.007812 4.316406 9.875 4.359375 C 9.738281 4.410156 9.515625 4.5 9.203125 4.625 C 8.898438 4.757812 8.484375 4.9375 7.953125 5.15625 L 6.203125 5.921875 C 5.472656 6.242188 4.820312 6.382812 4.25 6.34375 C 3.675781 6.3125 3.179688 6.128906 2.765625 5.796875 C 2.359375 5.460938 2.039062 5.023438 1.8125 4.484375 C 1.40625 3.546875 1.34375 2.695312 1.625 1.9375 C 1.914062 1.175781 2.535156 0.585938 3.484375 0.171875 L 5.65625 -0.765625 C 6.132812 -0.972656 6.503906 -1.140625 6.765625 -1.265625 C 7.035156 -1.390625 7.226562 -1.476562 7.34375 -1.53125 C 7.457031 -1.59375 7.53125 -1.628906 7.5625 -1.640625 L 7.421875 -2.53125 Z M 7.921875 -2.703125 "/></g></g></g><g fill="rgb(100%, 8.628845%, 8.628845%)" fill-opacity="1"><g transform="translate(254.882611, 145.945218)"><g><path d="M 0.734375 5.171875 C 0.597656 4.367188 0.628906 3.601562 0.828125 2.875 C 1.035156 2.15625 1.414062 1.539062 1.96875 1.03125 C 2.53125 0.53125 3.265625 0.203125 4.171875 0.046875 C 4.765625 -0.046875 5.332031 -0.0351562 5.875 0.078125 C 6.425781 0.203125 6.9375 0.429688 7.40625 0.765625 C 7.875 1.097656 8.265625 1.53125 8.578125 2.0625 C 8.898438 2.59375 9.125 3.222656 9.25 3.953125 C 9.3125 4.335938 9.34375 4.753906 9.34375 5.203125 C 9.34375 5.648438 9.296875 6.050781 9.203125 6.40625 L 7.3125 6.8125 L 7.140625 6.203125 L 8.40625 5.5625 C 8.488281 5.351562 8.535156 5.097656 8.546875 4.796875 C 8.566406 4.503906 8.550781 4.222656 8.5 3.953125 C 8.382812 3.242188 8.140625 2.691406 7.765625 2.296875 C 7.390625 1.910156 6.929688 1.65625 6.390625 1.53125 C 5.847656 1.40625 5.269531 1.390625 4.65625 1.484375 C 3.863281 1.617188 3.21875 1.867188 2.71875 2.234375 C 2.21875 2.597656 1.863281 3.039062 1.65625 3.5625 C 1.445312 4.082031 1.390625 4.625 1.484375 5.1875 C 1.535156 5.476562 1.613281 5.738281 1.71875 5.96875 C 1.832031 6.207031 1.972656 6.429688 2.140625 6.640625 L 3.5625 7.03125 L 3.609375 7.703125 L 1.78125 7.609375 C 1.550781 7.304688 1.335938 6.945312 1.140625 6.53125 C 0.953125 6.113281 0.816406 5.660156 0.734375 5.171875 Z M 0.734375 5.171875 "/></g></g></g><g fill="rgb(100%, 8.628845%, 8.628845%)" fill-opacity="1"><g transform="translate(256.412276, 157.091532)"><g><path d="M -0.5 5.203125 C -0.4375 4.378906 -0.222656 3.644531 0.140625 3 C 0.503906 2.351562 1.015625 1.84375 1.671875 1.46875 C 2.335938 1.101562 3.128906 0.957031 4.046875 1.03125 C 4.640625 1.070312 5.191406 1.210938 5.703125 1.453125 C 6.210938 1.703125 6.65625 2.046875 7.03125 2.484375 C 7.40625 2.921875 7.679688 3.429688 7.859375 4.015625 C 8.046875 4.609375 8.113281 5.273438 8.0625 6.015625 C 8.03125 6.398438 7.960938 6.804688 7.859375 7.234375 C 7.753906 7.671875 7.617188 8.054688 7.453125 8.390625 L 5.515625 8.34375 L 5.5 7.703125 L 6.875 7.375 C 7.007812 7.195312 7.117188 6.960938 7.203125 6.671875 C 7.285156 6.390625 7.335938 6.113281 7.359375 5.84375 C 7.410156 5.125 7.296875 4.53125 7.015625 4.0625 C 6.742188 3.59375 6.359375 3.234375 5.859375 2.984375 C 5.367188 2.734375 4.8125 2.585938 4.1875 2.546875 C 3.382812 2.484375 2.695312 2.570312 2.125 2.8125 C 1.550781 3.050781 1.101562 3.398438 0.78125 3.859375 C 0.457031 4.316406 0.273438 4.832031 0.234375 5.40625 C 0.210938 5.695312 0.226562 5.96875 0.28125 6.21875 C 0.332031 6.476562 0.414062 6.726562 0.53125 6.96875 L 1.8125 7.6875 L 1.703125 8.34375 L -0.0625 7.8125 C -0.195312 7.46875 -0.3125 7.066406 -0.40625 6.609375 C -0.5 6.160156 -0.53125 5.691406 -0.5 5.203125 Z M -0.5 5.203125 "/></g></g></g><g fill="rgb(100%, 8.628845%, 8.628845%)" fill-opacity="1"><g transform="translate(255.258425, 168.307407)"><g><path d="M -2.125 6.578125 C -2.007812 6.316406 -1.914062 6.085938 -1.84375 5.890625 C -1.769531 5.691406 -1.707031 5.503906 -1.65625 5.328125 L -0.203125 0.671875 L 0.328125 0.78125 L 0.25 1.6875 C 0.300781 1.707031 0.40625 1.742188 0.5625 1.796875 C 0.71875 1.859375 0.9375 1.9375 1.21875 2.03125 C 1.5 2.125 1.835938 2.234375 2.234375 2.359375 L 4.78125 3.140625 C 5.1875 3.273438 5.535156 3.382812 5.828125 3.46875 C 6.117188 3.550781 6.34375 3.613281 6.5 3.65625 C 6.664062 3.695312 6.769531 3.722656 6.8125 3.734375 L 7.265625 2.9375 L 7.765625 3.140625 L 6.40625 7.5 C 6.363281 7.625 6.320312 7.757812 6.28125 7.90625 C 6.238281 8.050781 6.195312 8.203125 6.15625 8.359375 C 6.125 8.523438 6.085938 8.703125 6.046875 8.890625 L 4.171875 8.59375 L 4.25 7.953125 L 5.546875 7.859375 C 5.585938 7.785156 5.625 7.707031 5.65625 7.625 C 5.6875 7.539062 5.71875 7.445312 5.75 7.34375 L 6.234375 5.8125 C 6.285156 5.632812 6.328125 5.476562 6.359375 5.34375 C 6.398438 5.207031 6.429688 5.078125 6.453125 4.953125 C 6.410156 4.941406 6.304688 4.90625 6.140625 4.84375 C 5.984375 4.789062 5.796875 4.726562 5.578125 4.65625 C 5.359375 4.582031 5.140625 4.507812 4.921875 4.4375 L 1.25 3.296875 C 1.070312 3.242188 0.890625 3.191406 0.703125 3.140625 C 0.515625 3.085938 0.347656 3.039062 0.203125 3 C 0.0664062 2.96875 -0.03125 2.941406 -0.09375 2.921875 C -0.15625 3.046875 -0.210938 3.175781 -0.265625 3.3125 C -0.316406 3.445312 -0.367188 3.597656 -0.421875 3.765625 L -0.828125 5.09375 C -0.890625 5.289062 -0.9375 5.453125 -0.96875 5.578125 C -1 5.703125 -1.019531 5.804688 -1.03125 5.890625 C -1.050781 5.972656 -1.0625 6.03125 -1.0625 6.0625 L 0.015625 7.1875 L -0.3125 7.75 Z M 1.21875 5.96875 L 2.171875 6.078125 C 2.203125 6.035156 2.238281 5.960938 2.28125 5.859375 C 2.332031 5.753906 2.378906 5.628906 2.421875 5.484375 L 2.75 4.4375 C 2.78125 4.332031 2.8125 4.203125 2.84375 4.046875 C 2.882812 3.898438 2.921875 3.757812 2.953125 3.625 L 3.703125 3.859375 C 3.660156 3.992188 3.613281 4.128906 3.5625 4.265625 C 3.507812 4.410156 3.46875 4.535156 3.4375 4.640625 L 3.109375 5.6875 C 3.066406 5.832031 3.03125 5.960938 3 6.078125 C 2.96875 6.191406 2.945312 6.269531 2.9375 6.3125 L 3.84375 6.78125 L 3.65625 7.359375 L 1.03125 6.546875 Z M 1.21875 5.96875 "/></g></g></g><g fill="rgb(100%, 8.628845%, 8.628845%)" fill-opacity="1"><g transform="translate(251.752946, 178.385538)"><g><path d="M -1.6875 2.734375 C -1.476562 2.367188 -1.222656 2.019531 -0.921875 1.6875 C -0.617188 1.363281 -0.328125 1.113281 -0.046875 0.9375 L 1.59375 1.78125 L 1.34375 2.34375 L 0.03125 2.0625 C -0.207031 2.1875 -0.429688 2.347656 -0.640625 2.546875 C -0.847656 2.753906 -1.023438 2.988281 -1.171875 3.25 C -1.398438 3.65625 -1.484375 4.039062 -1.421875 4.40625 C -1.359375 4.769531 -1.160156 5.046875 -0.828125 5.234375 C -0.535156 5.398438 -0.242188 5.445312 0.046875 5.375 C 0.335938 5.3125 0.632812 5.179688 0.9375 4.984375 C 1.238281 4.796875 1.539062 4.582031 1.84375 4.34375 C 2.15625 4.113281 2.476562 3.910156 2.8125 3.734375 C 3.144531 3.566406 3.488281 3.46875 3.84375 3.4375 C 4.207031 3.40625 4.582031 3.5 4.96875 3.71875 C 5.363281 3.9375 5.648438 4.25 5.828125 4.65625 C 6.015625 5.0625 6.082031 5.507812 6.03125 6 C 5.976562 6.488281 5.804688 6.988281 5.515625 7.5 C 5.390625 7.707031 5.257812 7.910156 5.125 8.109375 C 4.988281 8.304688 4.847656 8.476562 4.703125 8.625 C 4.566406 8.769531 4.429688 8.898438 4.296875 9.015625 L 2.6875 8.234375 L 2.9375 7.671875 L 4.171875 7.890625 C 4.484375 7.734375 4.753906 7.453125 4.984375 7.046875 C 5.234375 6.617188 5.320312 6.21875 5.25 5.84375 C 5.1875 5.476562 4.992188 5.207031 4.671875 5.03125 C 4.367188 4.851562 4.0625 4.796875 3.75 4.859375 C 3.445312 4.921875 3.144531 5.046875 2.84375 5.234375 C 2.539062 5.429688 2.234375 5.644531 1.921875 5.875 C 1.617188 6.113281 1.300781 6.320312 0.96875 6.5 C 0.632812 6.675781 0.296875 6.78125 -0.046875 6.8125 C -0.398438 6.84375 -0.757812 6.753906 -1.125 6.546875 C -1.53125 6.328125 -1.820312 6.015625 -2 5.609375 C -2.175781 5.203125 -2.238281 4.75 -2.1875 4.25 C -2.144531 3.75 -1.976562 3.242188 -1.6875 2.734375 Z M -1.6875 2.734375 "/></g></g></g><g fill="rgb(100%, 8.628845%, 8.628845%)" fill-opacity="1"><g transform="translate(246.774743, 186.622748)"><g><path d="M -2.203125 2.34375 C -1.921875 2.019531 -1.597656 1.726562 -1.234375 1.46875 C -0.867188 1.207031 -0.535156 1.023438 -0.234375 0.921875 L 1.203125 2.0625 L 0.84375 2.546875 L -0.375 2.03125 C -0.632812 2.113281 -0.882812 2.226562 -1.125 2.375 C -1.375 2.53125 -1.597656 2.71875 -1.796875 2.9375 C -2.109375 3.289062 -2.269531 3.648438 -2.28125 4.015625 C -2.300781 4.390625 -2.164062 4.703125 -1.875 4.953125 C -1.625 5.171875 -1.34375 5.273438 -1.03125 5.265625 C -0.726562 5.265625 -0.410156 5.195312 -0.078125 5.0625 C 0.253906 4.9375 0.59375 4.789062 0.9375 4.625 C 1.289062 4.457031 1.644531 4.320312 2 4.21875 C 2.363281 4.125 2.722656 4.09375 3.078125 4.125 C 3.441406 4.164062 3.789062 4.335938 4.125 4.640625 C 4.46875 4.941406 4.6875 5.304688 4.78125 5.734375 C 4.882812 6.160156 4.859375 6.609375 4.703125 7.078125 C 4.554688 7.546875 4.285156 8.003906 3.890625 8.453125 C 3.734375 8.628906 3.570312 8.800781 3.40625 8.96875 C 3.238281 9.132812 3.066406 9.273438 2.890625 9.390625 C 2.722656 9.503906 2.554688 9.601562 2.390625 9.6875 L 0.984375 8.59375 L 1.34375 8.109375 L 2.5 8.578125 C 2.84375 8.472656 3.171875 8.242188 3.484375 7.890625 C 3.804688 7.523438 3.96875 7.15625 3.96875 6.78125 C 3.976562 6.40625 3.84375 6.09375 3.5625 5.84375 C 3.300781 5.625 3.015625 5.515625 2.703125 5.515625 C 2.390625 5.515625 2.066406 5.578125 1.734375 5.703125 C 1.398438 5.835938 1.054688 5.988281 0.703125 6.15625 C 0.359375 6.320312 0.00390625 6.457031 -0.359375 6.5625 C -0.722656 6.664062 -1.078125 6.695312 -1.421875 6.65625 C -1.765625 6.625 -2.097656 6.46875 -2.421875 6.1875 C -2.765625 5.882812 -2.984375 5.515625 -3.078125 5.078125 C -3.179688 4.648438 -3.15625 4.195312 -3 3.71875 C -2.851562 3.25 -2.585938 2.789062 -2.203125 2.34375 Z M -2.203125 2.34375 "/></g></g></g></svg>